STARTFONT 2.1
COMMENT
COMMENT Converted from OpenType font "Q:\font stuff\winfont\Astute Caps.ttf" by "otf2bdf 3.0".
COMMENT
FONT -FreeType-Astute Caps-Medium-R-Normal--96-960-72-72-P-203-ISO10646-1
SIZE 96 72 72
FONTBOUNDINGBOX 118 98 -7 -13
STARTPROPERTIES 19
FOUNDRY "FreeType"
FAMILY_NAME "Astute Caps"
WEIGHT_NAME "Medium"
SLANT "R"
SETWIDTH_NAME "Normal"
ADD_STYLE_NAME ""
PIXEL_SIZE 96
POINT_SIZE 960
RESOLUTION_X 72
RESOLUTION_Y 72
SPACING "P"
AVERAGE_WIDTH 203
CHARSET_REGISTRY "ISO10646"
CHARSET_ENCODING "1"
FONT_ASCENT 67
FONT_DESCENT 2
COPYRIGHT "From the WSI-FONTS Collection.  Copyright (c)1992 W.S.I.  All Rights Reserved.  Redistribution strictly prohibited."
_OTF_FONTFILE "Q:\font stuff\winfont\Astute Caps.ttf"
_OTF_PSNAME "AstuteCaps"
ENDPROPERTIES
CHARS 226
STARTCHAR 0020
ENCODING 32
SWIDTH 135 0
DWIDTH 13 0
BBX 0 0 0 0
BITMAP
ENDCHAR
STARTCHAR 0021
ENCODING 33
SWIDTH 135 0
DWIDTH 13 0
BBX 6 67 4 0
BITMAP
30
78
78
78
78
78
78
78
78
78
78
78
78
78
78
78
78
78
78
78
78
78
78
78
78
78
78
78
78
78
78
78
78
78
78
78
78
78
78
78
78
78
78
78
78
78
78
78
78
78
78
78
78
78
78
78
78
78
78
78
30
30
FC
FC
FC
FC
78
ENDCHAR
STARTCHAR 0022
ENCODING 34
SWIDTH 208 0
DWIDTH 20 0
BBX 11 20 5 47
BITMAP
60C0
F1E0
F1E0
F1E0
F1E0
F1E0
F1E0
F1E0
F1E0
F1E0
F1E0
F1E0
F1E0
F1E0
F1E0
F1E0
F1E0
F1E0
F1E0
60C0
ENDCHAR
STARTCHAR 0023
ENCODING 35
SWIDTH 239 0
DWIDTH 23 0
BBX 22 67 0 0
BITMAP
018060
03C0F0
03C0F0
03C0F0
0380F0
0380F0
0380F0
0780F0
0780F0
0780F0
0780E0
0780E0
0781E0
0781E0
0781E0
0781E0
0781E0
0F81E0
0F01E0
0F01E0
3FFFF8
7FFFFC
3FFFFC
3FFFF8
0F03C0
0F03C0
0F03C0
0F03C0
0F03C0
1F03C0
1E03C0
1E03C0
1E03C0
1E03C0
1E0780
1E0780
7FFFF0
FFFFF0
FFFFF8
7FFFF0
1E0780
3E0780
3C0780
3C0780
3C0780
3C0780
3C0780
3C0780
3C0F00
3C0F00
3C0F00
3C0F00
3C0F00
380F00
780F00
780F00
780F00
780F00
780F00
780E00
781E00
781E00
781E00
781E00
701E00
701E00
700C00
ENDCHAR
STARTCHAR 0024
ENCODING 36
SWIDTH 239 0
DWIDTH 23 0
BBX 18 72 2 -4
BITMAP
00C000
01E000
07FC00
0FFE00
1FFF00
3FFF80
7DE780
79E3C0
71E3C0
F1E3C0
F1E3C0
F1E1C0
F1E1C0
F1E1C0
F1E1C0
F1E1C0
F1E1C0
F1E1C0
F1E000
F1E000
F1E000
F1E000
F1E000
F1E000
F1E000
F1E000
F1E000
F1E000
F1E000
F1E000
F1E000
F1E000
F1E000
F1E000
F1E000
F1E000
F1E000
F1E000
79E000
7FE000
7FF800
3FFE00
0FFF00
01FF80
01EF80
01E780
01E3C0
01E3C0
01E3C0
01E3C0
01E3C0
01E3C0
01E3C0
E1E3C0
F1E3C0
F1E3C0
F1E3C0
F1E3C0
F1E3C0
F1E3C0
F1E3C0
F1E3C0
F1E3C0
F1E3C0
79E780
7FEF80
3FFF00
1FFF00
0FFE00
01F000
01E000
01E000
ENDCHAR
STARTCHAR 0025
ENCODING 37
SWIDTH 510 0
DWIDTH 49 0
BBX 37 69 6 -1
BITMAP
1F8000E000
3FC000E000
7FE001E000
79E001E000
F0F001E000
F0F001C000
F0F001C000
F0F003C000
F0F003C000
F0F003C000
F0F0038000
F0F0078000
F0F0078000
F0F0078000
F0F0078000
F0F0070000
F0F00F0000
F0F00F0000
F0F00F0000
F0F00F0000
F0F00E0000
F0F01E0000
F0F01E0000
F0F01E0000
F0F01E0000
F0F01C0000
F0F03C0000
F0F03C0000
F0F03C0FC0
F0F03C1FE0
F0F0383FF0
F0F0783CF0
F0F0787878
F0F0787878
F0F0787878
F0F0707878
F0F0F07878
F1F0F07878
7FE0F07878
7FE0E07878
3FC0E07878
0001E07878
0001E07878
0001E07878
0001C07878
0001C07878
0003C07878
0003C07878
0003C07878
0003807878
0003807878
0007807878
0007807878
0007807878
0007007878
0007007878
000F007878
000F007878
000F007878
000E007878
001E007878
001E007878
001E007878
001E007878
001C007878
003C0038F0
003C003FF0
003C001FE0
0018000FC0
ENDCHAR
STARTCHAR 0026
ENCODING 38
SWIDTH 239 0
DWIDTH 23 0
BBX 20 69 2 -1
BITMAP
07F000
1FFE00
3FFF00
7FFF00
7C0F80
780780
F003C0
F003C0
F003C0
F003C0
F003C0
F003C0
F003C0
F003C0
F003C0
F003C0
F00000
F00000
F00000
F00000
F00000
F00000
F00000
F00000
F00000
F00000
F00000
F00000
F00000
F00000
F00000
780000
7C0000
3FF800
1FFC00
3FFC00
7FFC00
FC0000
F80000
F80000
F00000
F00000
F00000
F00000
F00000
F00000
F00000
F07FF0
F07FF0
F07FF0
F03FE0
F003C0
F003C0
F003C0
F003C0
F003C0
F003C0
F003C0
F003C0
F003C0
F003C0
F003C0
F003C0
780780
780F80
7FFF00
3FFF00
1FFC00
03F000
ENDCHAR
STARTCHAR 0027
ENCODING 39
SWIDTH 135 0
DWIDTH 13 0
BBX 4 20 5 47
BITMAP
60
F0
F0
F0
F0
F0
F0
F0
F0
F0
F0
F0
F0
F0
F0
F0
F0
F0
F0
60
ENDCHAR
STARTCHAR 0028
ENCODING 40
SWIDTH 135 0
DWIDTH 13 0
BBX 13 67 1 0
BITMAP
0070
00F0
01F0
01E0
03E0
03E0
03C0
07C0
07C0
0780
0F80
0F80
0F00
1F00
1F00
1E00
1E00
3E00
3C00
3C00
3C00
7C00
7C00
7800
7800
7800
F800
F800
F000
F000
F000
F000
F000
F000
F000
F000
F000
F000
F000
F000
7000
7800
7800
7800
7800
7C00
3C00
3C00
3C00
3E00
1E00
1F00
1F00
0F00
0F80
0F80
0780
07C0
07C0
03C0
03E0
01E0
01E0
01F0
00F0
0078
0070
ENDCHAR
STARTCHAR 0029
ENCODING 41
SWIDTH 135 0
DWIDTH 13 0
BBX 13 67 -1 0
BITMAP
7000
7800
7800
7C00
3E00
3E00
3E00
1F00
1F00
0F80
0F80
0F80
0780
07C0
07C0
03C0
03E0
03E0
01E0
01E0
01E0
01F0
00F0
00F0
00F0
00F0
00F0
00F8
0078
0078
0078
0078
0078
0078
0078
0078
0078
0078
0078
0078
0078
00F0
00F0
00F0
00F0
01F0
01E0
01E0
01E0
03E0
03C0
03C0
07C0
0780
0780
0F80
0F00
1F00
1F00
1E00
3E00
3E00
3C00
7C00
7800
F000
7000
ENDCHAR
STARTCHAR 002A
ENCODING 42
SWIDTH 239 0
DWIDTH 23 0
BBX 22 21 0 46
BITMAP
003000
007800
007800
007800
007800
007800
007800
F878FC
FFFFFC
FFFFFC
3FFFF0
07FF80
01FC00
01FE00
03FF00
07CF00
07CF80
0F87C0
0F03C0
1E03C0
0E0180
ENDCHAR
STARTCHAR 002B
ENCODING 43
SWIDTH 510 0
DWIDTH 49 0
BBX 45 45 2 1
BITMAP
00000F000000
00000F000000
00000F000000
00000F000000
00000F000000
00000F000000
00000F000000
00000F000000
00000F000000
00000F000000
00000F000000
00000F000000
00000F000000
00000F000000
00000F000000
00000F000000
00000F000000
00000F000000
00000F000000
00000F000000
00000F000000
7FFFFFFFFFF0
FFFFFFFFFFF8
FFFFFFFFFFF8
7FFFFFFFFFF0
00000F000000
00000F000000
00000F000000
00000F000000
00000F000000
00000F000000
00000F000000
00000F000000
00000F000000
00000F000000
00000F000000
00000F000000
00000F000000
00000F000000
00000F000000
00000F000000
00000F000000
00000F000000
00000F000000
000006000000
ENDCHAR
STARTCHAR 002C
ENCODING 44
SWIDTH 135 0
DWIDTH 13 0
BBX 9 17 3 -4
BITMAP
0300
0780
0780
0F80
0F00
0F00
1E00
1E00
3E00
3C00
7C00
7800
7800
F000
F000
E000
4000
ENDCHAR
STARTCHAR 002D
ENCODING 45
SWIDTH 135 0
DWIDTH 13 0
BBX 9 4 2 26
BITMAP
7F80
FF80
FF80
7F00
ENDCHAR
STARTCHAR 002E
ENCODING 46
SWIDTH 135 0
DWIDTH 13 0
BBX 6 6 4 0
BITMAP
30
7C
FC
FC
FC
78
ENDCHAR
STARTCHAR 002F
ENCODING 47
SWIDTH 135 0
DWIDTH 13 0
BBX 11 67 1 0
BITMAP
00E0
01E0
01E0
01E0
01E0
01E0
01C0
01C0
01C0
03C0
03C0
03C0
03C0
03C0
03C0
0380
0380
0780
0780
0780
0780
0780
0780
0700
0700
0700
0F00
0F00
0F00
0F00
0F00
0F00
0E00
0E00
0E00
1E00
1E00
1E00
1E00
1E00
1E00
1C00
1C00
3C00
3C00
3C00
3C00
3C00
3C00
3800
3800
3800
7800
7800
7800
7800
7800
7800
7000
7000
7000
F000
F000
F000
F000
F000
E000
ENDCHAR
STARTCHAR 0030
ENCODING 48
SWIDTH 239 0
DWIDTH 23 0
BBX 19 69 2 -1
BITMAP
03F800
1FFE00
3FFF80
7FFF80
7C0FC0
7803C0
F803E0
F001E0
F001E0
F001E0
F001E0
F001E0
F001E0
F001E0
F001E0
F001E0
F001E0
F001E0
F001E0
F001E0
F001E0
F001E0
F001E0
F001E0
F001E0
F001E0
F001E0
F001E0
F001E0
F001E0
F001E0
F001E0
F001E0
F001E0
F001E0
F001E0
F001E0
F001E0
F001E0
F001E0
F001E0
F001E0
F001E0
F001E0
F001E0
F001E0
F001E0
F001E0
F001E0
F001E0
F001E0
F001E0
F001E0
F001E0
F001E0
F001E0
F001E0
F001E0
F001E0
F001E0
F001E0
F001E0
F803E0
7803C0
7C0FC0
3FFF80
3FFF80
0FFE00
03F800
ENDCHAR
STARTCHAR 0031
ENCODING 49
SWIDTH 114 0
DWIDTH 11 0
BBX 4 67 3 0
BITMAP
60
F0
F0
F0
F0
F0
F0
F0
F0
F0
F0
F0
F0
F0
F0
F0
F0
F0
F0
F0
F0
F0
F0
F0
F0
F0
F0
F0
F0
F0
F0
F0
F0
F0
F0
F0
F0
F0
F0
F0
F0
F0
F0
F0
F0
F0
F0
F0
F0
F0
F0
F0
F0
F0
F0
F0
F0
F0
F0
F0
F0
F0
F0
F0
F0
F0
60
ENDCHAR
STARTCHAR 0032
ENCODING 50
SWIDTH 239 0
DWIDTH 23 0
BBX 17 68 3 0
BITMAP
07F000
1FFC00
3FFE00
7FFF00
781F00
F00F00
F00780
F00780
E00780
E00780
E00780
E00780
E00780
E00780
E00780
E00780
C00780
000780
000780
000780
000780
000780
000780
000780
000780
000780
000780
000780
000780
000780
000780
000780
000780
000780
000780
000780
000780
000780
000F80
001F00
003F00
01FE00
0FFC00
1FF000
3F8000
7C0000
780000
F80000
F00000
F00000
F00000
F00000
F00000
F00000
F00000
F00000
F00000
F00000
F00000
F00000
F00000
F00000
F00000
F00000
FFFF00
FFFF80
FFFF80
7FFF00
ENDCHAR
STARTCHAR 0033
ENCODING 51
SWIDTH 239 0
DWIDTH 23 0
BBX 19 69 2 -1
BITMAP
03F800
0FFE00
3FFF80
3FFF80
7C07C0
7803C0
F003E0
F001E0
F001E0
F001E0
F001E0
F001E0
F001E0
F001E0
F001E0
F001E0
F001E0
0001E0
0001E0
0001E0
0001E0
0001E0
0001E0
0001E0
0001E0
0001E0
0001E0
0001E0
0001E0
0001E0
0003E0
0003C0
000FC0
7FFF80
FFFF00
FFFF80
7FFFC0
000FC0
0003E0
0003E0
0001E0
0001E0
0001E0
0001E0
0001E0
0001E0
0001E0
0001E0
0001E0
0001E0
0001E0
0001E0
E001E0
F001E0
F001E0
F001E0
F001E0
F001E0
F001E0
F001E0
F001E0
F001E0
F003E0
7803C0
7C0FC0
7FFF80
3FFF80
1FFF00
03F800
ENDCHAR
STARTCHAR 0034
ENCODING 52
SWIDTH 239 0
DWIDTH 23 0
BBX 21 67 2 0
BITMAP
006300
00F780
00F780
00E780
01E780
01E780
01E780
01E780
01C780
01C780
03C780
03C780
03C780
03C780
038780
078780
078780
078780
078780
078780
070780
0F0780
0F0780
0F0780
0F0780
0E0780
1E0780
1E0780
1E0780
1E0780
1E0780
3C0780
3C0780
3C0780
3C0780
3C0780
380780
780780
780780
780780
780780
780780
F00780
FFFFF0
FFFFF8
FFFFF8
7FFFF8
000780
000780
000780
000780
000780
000780
000780
000780
000780
000780
000780
000780
000780
000780
000780
000780
000780
000780
000780
000300
ENDCHAR
STARTCHAR 0035
ENCODING 53
SWIDTH 239 0
DWIDTH 23 0
BBX 17 68 3 -1
BITMAP
7FFF00
FFFF80
FFFF80
FFFF00
F00000
F00000
F00000
F00000
F00000
F00000
F00000
F00000
F00000
F00000
F00000
F00000
F00000
F00000
F00000
F00000
F00000
F00000
F00000
F00000
F00000
FFF800
FFFE00
FFFF00
FFFF00
001F00
000F80
000780
000780
000780
000780
000780
000780
000780
000780
000780
000780
000780
000780
000780
000780
000780
000780
000780
000780
000780
000780
000780
E00780
E00780
E00780
E00780
E00780
E00780
E00780
E00780
E00780
F00780
F00F00
700F00
7E7F00
3FFE00
1FFC00
07F000
ENDCHAR
STARTCHAR 0036
ENCODING 54
SWIDTH 239 0
DWIDTH 23 0
BBX 19 69 2 -1
BITMAP
03F800
1FFE00
3FFF80
7FFF80
7C07C0
7803C0
F801E0
F001E0
F001E0
F001E0
F001E0
F001E0
F001E0
F001E0
F001E0
F001E0
F001C0
F00000
F00000
F00000
F00000
F00000
F00000
F00000
F00000
F00000
F3F800
FFFE00
FFFF80
FFFF80
FC07C0
F803C0
F001E0
F001E0
F001E0
F001E0
F001E0
F001E0
F001E0
F001E0
F001E0
F001E0
F001E0
F001E0
F001E0
F001E0
F001E0
F001E0
F001E0
F001E0
F001E0
F001E0
F001E0
F001E0
F001E0
F001E0
F001E0
F001E0
F001E0
F001E0
F001E0
F001E0
F003E0
7803C0
7C0FC0
3FFF80
3FFF80
0FFE00
03F800
ENDCHAR
STARTCHAR 0037
ENCODING 55
SWIDTH 239 0
DWIDTH 23 0
BBX 17 67 4 0
BITMAP
7FFF00
FFFF80
FFFF80
7FFF80
000780
000700
000F00
000F00
000F00
000F00
001E00
001E00
001E00
001E00
001E00
003C00
003C00
003C00
003C00
003C00
007800
007800
007800
007800
007800
00F000
00F000
00F000
00F000
00F000
01E000
01E000
01E000
01E000
01C000
03C000
03C000
03C000
03C000
078000
078000
078000
078000
078000
0F0000
0F0000
0F0000
0F0000
0F0000
1E0000
1E0000
1E0000
1E0000
1E0000
3C0000
3C0000
3C0000
3C0000
3C0000
780000
780000
780000
780000
700000
F00000
F00000
600000
ENDCHAR
STARTCHAR 0038
ENCODING 56
SWIDTH 239 0
DWIDTH 23 0
BBX 18 69 2 -1
BITMAP
03F000
1FFE00
3FFF00
3FFF00
7C0F80
780780
F007C0
F003C0
F003C0
F003C0
F003C0
F003C0
F003C0
F003C0
F003C0
F003C0
F003C0
F003C0
F003C0
F003C0
F003C0
F003C0
F003C0
F003C0
F003C0
F003C0
F003C0
F003C0
F003C0
F003C0
F807C0
F80780
7C0F80
7FFF00
1FFE00
3FFF00
7FFF80
FC0F80
F807C0
F003C0
F003C0
F003C0
F003C0
F003C0
F003C0
F003C0
F003C0
F003C0
F003C0
F003C0
F003C0
F003C0
F003C0
F003C0
F003C0
F003C0
F003C0
F003C0
F003C0
F003C0
F003C0
F003C0
F003C0
780780
780780
3F3F80
3FFF00
0FFE00
03F000
ENDCHAR
STARTCHAR 0039
ENCODING 57
SWIDTH 239 0
DWIDTH 23 0
BBX 18 69 2 -1
BITMAP
07F000
1FFE00
3FFF00
7FFF00
7C0F80
780780
F003C0
F003C0
F003C0
F003C0
F003C0
F003C0
F003C0
F003C0
F003C0
F003C0
F003C0
F003C0
F003C0
F003C0
F003C0
F003C0
F003C0
F003C0
F003C0
F003C0
F003C0
F003C0
F003C0
F003C0
F003C0
F003C0
F003C0
F003C0
F003C0
F003C0
F003C0
7807C0
7C0FC0
7FFFC0
3FFFC0
1FFFC0
07FBC0
0003C0
0003C0
0003C0
0003C0
0003C0
0003C0
0003C0
0003C0
0003C0
6003C0
F003C0
F003C0
F003C0
F003C0
F003C0
F003C0
F003C0
F003C0
F003C0
F003C0
780780
7C0F80
7FFF00
3FFF00
1FFE00
07F000
ENDCHAR
STARTCHAR 003A
ENCODING 58
SWIDTH 135 0
DWIDTH 13 0
BBX 6 39 4 1
BITMAP
78
FC
FC
FC
78
00
00
00
00
00
00
00
00
00
00
00
00
00
00
00
00
00
00
00
00
00
00
00
00
00
00
00
00
20
F8
FC
FC
FC
78
ENDCHAR
STARTCHAR 003B
ENCODING 59
SWIDTH 135 0
DWIDTH 13 0
BBX 9 44 3 -4
BITMAP
0800
3E00
7E00
7E00
3E00
3E00
0000
0000
0000
0000
0000
0000
0000
0000
0000
0000
0000
0000
0000
0000
0000
0000
0000
0000
0000
0000
0000
0300
0780
0780
0F80
0F00
0F00
1E00
1E00
3E00
3C00
7C00
7800
7800
F000
F000
E000
4000
ENDCHAR
STARTCHAR 003C
ENCODING 60
SWIDTH 281 0
DWIDTH 27 0
BBX 23 35 1 4
BITMAP
00001C
00003E
00007E
0000FC
0001F8
0003F0
0007E0
001FC0
003F80
007F00
00FC00
01F800
03F000
07E000
0FC000
3F8000
7E0000
FC0000
7E0000
3F0000
1F8000
0FC000
07E000
01F000
00FC00
007E00
003F00
001F80
000FC0
0007F0
0001F8
0000FC
00007E
00003E
00001C
ENDCHAR
STARTCHAR 003D
ENCODING 61
SWIDTH 510 0
DWIDTH 49 0
BBX 44 18 2 13
BITMAP
7FFFFFFFFFE0
FFFFFFFFFFF0
FFFFFFFFFFF0
7FFFFFFFFFE0
000000000000
000000000000
000000000000
000000000000
000000000000
000000000000
000000000000
000000000000
000000000000
000000000000
7FFFFFFFFFE0
FFFFFFFFFFF0
FFFFFFFFFFF0
7FFFFFFFFFE0
ENDCHAR
STARTCHAR 003E
ENCODING 62
SWIDTH 281 0
DWIDTH 27 0
BBX 23 35 3 4
BITMAP
600000
F80000
FC0000
7E0000
3F0000
1F8000
0FC000
07E000
03F000
01FC00
007E00
003F00
001F80
000FC0
0007E0
0003F0
0000F8
00007E
0000FC
0001F8
0003F0
0007E0
000FC0
001F80
007E00
00FC00
01F800
03F000
07E000
0FC000
3F8000
7E0000
FC0000
F80000
700000
ENDCHAR
STARTCHAR 003F
ENCODING 63
SWIDTH 229 0
DWIDTH 22 0
BBX 18 68 2 0
BITMAP
03F800
1FFE00
3FFF00
3FFF80
7C0F80
780780
F003C0
F003C0
F003C0
F003C0
F003C0
F003C0
F003C0
F003C0
F003C0
F003C0
F003C0
0003C0
0003C0
0003C0
0003C0
0003C0
0003C0
0003C0
0003C0
0003C0
0003C0
0003C0
0003C0
0003C0
0003C0
0003C0
0003C0
0003C0
0003C0
0003C0
0003C0
0003C0
0003C0
0003C0
0003C0
0003C0
0003C0
0003C0
0003C0
0007C0
000780
003F80
01FF00
01FE00
01F800
01E000
01E000
01E000
01E000
01E000
01E000
01E000
01E000
01E000
01E000
00C000
00C000
01F000
03F000
03F000
03F000
01E000
ENDCHAR
STARTCHAR 0040
ENCODING 64
SWIDTH 562 0
DWIDTH 54 0
BBX 47 61 3 0
BITMAP
000FFFFFE000
007FFFFFFC00
00FFFFFFFE00
03FFFFFFFF80
07F800003FC0
0FE000000FE0
1F80000003F0
3F00000001F8
3E00000000F8
7C000000007C
7C000000007C
78000000003C
F8000000003E
F0000FFF801E
F0003FFF801E
F0007FFF801E
F000FFFF801E
F001FC07801E
F001F007801E
F003E007801E
F003E007801E
F003C007801E
F003C007801E
F003C007801E
F003C007801E
F003C007801E
F003C007801E
F003C007801E
F003C007801E
F003C007801E
F003C007801E
F003C007801E
F003C007801E
F003C007801E
F003C007801E
F003C007801E
F003C007801E
F003C007801E
F003C007801E
F003C007801E
F003C007801E
F003C007801E
F003C007801E
F003C007801E
F003C007801E
F003C007801E
F003C007801E
F003C007801E
F003C007801E
F003C007801E
F003C007801E
F003C007801E
F003C007801E
F003C007801E
F803C007801E
7C01E00FC03C
7E01F01FC03C
3F80F83FF0F8
1F807FFFFFF0
0F803FFCFFE0
03800FE01F80
ENDCHAR
STARTCHAR 0041
ENCODING 65
SWIDTH 260 0
DWIDTH 25 0
BBX 22 68 0 0
BITMAP
003F80
01FFE0
03FFF0
07FFF8
0780F8
078078
0F003C
0F003C
0F003C
0F003C
0F003C
0F003C
0F003C
0F003C
0F003C
0F003C
0F003C
0F003C
0F003C
0F003C
0F003C
0F003C
0F003C
0F003C
0F003C
0F003C
0F003C
0F003C
0F003C
0F003C
0F003C
0F003C
0F003C
0F003C
0F003C
0F003C
0F003C
0F003C
FFFFFC
FFFFFC
FFFFFC
FFFFFC
0F003C
0F003C
0F003C
0F003C
0F003C
0F003C
0F003C
0F003C
0F003C
0F003C
0F003C
0F003C
0F003C
0F003C
0F003C
0F003C
0F003C
0F003C
0F003C
0F003C
0F003C
0F003C
0F003C
0F003C
0F003C
060018
ENDCHAR
STARTCHAR 0042
ENCODING 66
SWIDTH 260 0
DWIDTH 25 0
BBX 22 67 0 0
BITMAP
0FFF80
0FFFE0
0FFFF0
0FFFF8
0F00F8
0F0078
0F007C
0F003C
0F003C
0F003C
0F003C
0F003C
0F003C
0F003C
0F003C
0F003C
0F003C
0F003C
0F003C
0F003C
0F003C
0F003C
0F003C
0F003C
0F003C
0F003C
0F003C
0F003C
0F003C
0F003C
0F003C
0F003C
0F003C
0F003C
0F007C
0F0078
0F00F8
FFFFF0
FFFFE0
FFFFF0
FFFFF8
0F00F8
0F007C
0F003C
0F003C
0F003C
0F003C
0F003C
0F003C
0F003C
0F003C
0F003C
0F003C
0F003C
0F003C
0F003C
0F003C
0F003C
0F003C
0F003C
0F007C
0F0078
0F00F8
0FFFF0
0FFFF0
0FFFE0
0FFF00
ENDCHAR
STARTCHAR 0043
ENCODING 67
SWIDTH 229 0
DWIDTH 22 0
BBX 18 69 2 -1
BITMAP
07F000
1FFE00
3FFF00
7FFF80
7C0F80
780780
F003C0
F003C0
F003C0
F003C0
F003C0
F003C0
F003C0
F003C0
F003C0
F003C0
F003C0
F00000
F00000
F00000
F00000
F00000
F00000
F00000
F00000
F00000
F00000
F00000
F00000
F00000
F00000
F00000
F00000
F00000
F00000
F00000
F00000
F00000
F00000
F00000
F00000
F00000
F00000
F00000
F00000
F00000
F00000
F00000
F00000
F00000
F00000
F00180
F003C0
F003C0
F003C0
F003C0
F003C0
F003C0
F003C0
F003C0
F003C0
F003C0
F007C0
780780
7C0F80
7FFF80
3FFF00
1FFE00
07F800
ENDCHAR
STARTCHAR 0044
ENCODING 68
SWIDTH 239 0
DWIDTH 23 0
BBX 18 67 3 0
BITMAP
FFF800
FFFE00
FFFF00
FFFF80
F00F80
F00780
F007C0
F003C0
F003C0
F003C0
F003C0
F003C0
F003C0
F003C0
F003C0
F003C0
F003C0
F003C0
F003C0
F003C0
F003C0
F003C0
F003C0
F003C0
F003C0
F003C0
F003C0
F003C0
F003C0
F003C0
F003C0
F003C0
F003C0
F003C0
F003C0
F003C0
F003C0
F003C0
F003C0
F003C0
F003C0
F003C0
F003C0
F003C0
F003C0
F003C0
F003C0
F003C0
F003C0
F003C0
F003C0
F003C0
F003C0
F003C0
F003C0
F003C0
F003C0
F003C0
F003C0
F003C0
F003C0
F00780
F00F80
FFFF00
FFFF00
FFFE00
FFF000
ENDCHAR
STARTCHAR 0045
ENCODING 69
SWIDTH 229 0
DWIDTH 22 0
BBX 21 67 0 0
BITMAP
07FFF8
0FFFF8
0FFFF8
0FFFF0
0F0000
0F0000
0F0000
0F0000
0F0000
0F0000
0F0000
0F0000
0F0000
0F0000
0F0000
0F0000
0F0000
0F0000
0F0000
0F0000
0F0000
0F0000
0F0000
0F0000
0F0000
0F0000
0F0000
0F0000
0F0000
0F0000
0F0000
0F0000
0F0000
0F0000
0F0000
0F0000
0F0000
FFFFF0
FFFFF8
FFFFF8
FFFFF8
0F0000
0F0000
0F0000
0F0000
0F0000
0F0000
0F0000
0F0000
0F0000
0F0000
0F0000
0F0000
0F0000
0F0000
0F0000
0F0000
0F0000
0F0000
0F0000
0F0000
0F0000
0F0000
0FFFF8
0FFFF8
0FFFF8
07FFF0
ENDCHAR
STARTCHAR 0046
ENCODING 70
SWIDTH 229 0
DWIDTH 22 0
BBX 21 67 0 0
BITMAP
07FFF8
0FFFF8
0FFFF8
0FFFF0
0F0000
0F0000
0F0000
0F0000
0F0000
0F0000
0F0000
0F0000
0F0000
0F0000
0F0000
0F0000
0F0000
0F0000
0F0000
0F0000
0F0000
0F0000
0F0000
0F0000
0F0000
0F0000
0F0000
0F0000
0F0000
0F0000
0F0000
0F0000
0F0000
0F0000
0F0000
0F0000
0F0000
FFFFF0
FFFFF8
FFFFF8
FFFFF8
0F0000
0F0000
0F0000
0F0000
0F0000
0F0000
0F0000
0F0000
0F0000
0F0000
0F0000
0F0000
0F0000
0F0000
0F0000
0F0000
0F0000
0F0000
0F0000
0F0000
0F0000
0F0000
0F0000
0F0000
0F0000
060000
ENDCHAR
STARTCHAR 0047
ENCODING 71
SWIDTH 239 0
DWIDTH 23 0
BBX 19 69 2 -1
BITMAP
03F800
1FFE00
3FFF80
7FFF80
7C07C0
7803C0
F003E0
F001E0
F001E0
F001E0
F001E0
F001E0
F001E0
F001E0
F001E0
F001E0
F001E0
F00000
F00000
F00000
F00000
F00000
F00000
F00000
F00000
F00000
F00000
F00000
F00000
F00000
F00000
F00000
F00000
F00000
F00000
F00000
F00000
F00000
F03FC0
F07FE0
F07FE0
F03FE0
F001E0
F001E0
F001E0
F001E0
F001E0
F001E0
F001E0
F001E0
F001E0
F001E0
F001E0
F001E0
F001E0
F001E0
F001E0
F001E0
F001E0
F001E0
F001E0
F001E0
F803E0
7803C0
7E07C0
3FFF80
3FFF80
0FFE00
03F800
ENDCHAR
STARTCHAR 0048
ENCODING 72
SWIDTH 260 0
DWIDTH 25 0
BBX 22 67 0 0
BITMAP
060018
0F003C
0F003C
0F003C
0F003C
0F003C
0F003C
0F003C
0F003C
0F003C
0F003C
0F003C
0F003C
0F003C
0F003C
0F003C
0F003C
0F003C
0F003C
0F003C
0F003C
0F003C
0F003C
0F003C
0F003C
0F003C
0F003C
0F003C
0F003C
0F003C
0F003C
0F003C
0F003C
0F003C
0F003C
0F003C
0F003C
FFFFFC
FFFFFC
FFFFFC
FFFFFC
0F003C
0F003C
0F003C
0F003C
0F003C
0F003C
0F003C
0F003C
0F003C
0F003C
0F003C
0F003C
0F003C
0F003C
0F003C
0F003C
0F003C
0F003C
0F003C
0F003C
0F003C
0F003C
0F003C
0F003C
0F003C
060018
ENDCHAR
STARTCHAR 0049
ENCODING 73
SWIDTH 93 0
DWIDTH 9 0
BBX 4 67 2 0
BITMAP
60
F0
F0
F0
F0
F0
F0
F0
F0
F0
F0
F0
F0
F0
F0
F0
F0
F0
F0
F0
F0
F0
F0
F0
F0
F0
F0
F0
F0
F0
F0
F0
F0
F0
F0
F0
F0
F0
F0
F0
F0
F0
F0
F0
F0
F0
F0
F0
F0
F0
F0
F0
F0
F0
F0
F0
F0
F0
F0
F0
F0
F0
F0
F0
F0
F0
60
ENDCHAR
STARTCHAR 004A
ENCODING 74
SWIDTH 218 0
DWIDTH 21 0
BBX 18 68 0 -1
BITMAP
000180
0003C0
0003C0
0003C0
0003C0
0003C0
0003C0
0003C0
0003C0
0003C0
0003C0
0003C0
0003C0
0003C0
0003C0
0003C0
0003C0
0003C0
0003C0
0003C0
0003C0
0003C0
0003C0
0003C0
0003C0
0003C0
0003C0
0003C0
0003C0
0003C0
0003C0
0003C0
0003C0
0003C0
0003C0
0003C0
0003C0
0003C0
0003C0
0003C0
0003C0
0003C0
0003C0
0003C0
0003C0
0003C0
0003C0
0003C0
0003C0
0003C0
0003C0
6003C0
F003C0
F003C0
F003C0
F003C0
F003C0
F003C0
F003C0
F003C0
F003C0
F007C0
780780
7C0F80
3FFF80
3FFF00
1FFE00
07F000
ENDCHAR
STARTCHAR 004B
ENCODING 75
SWIDTH 291 0
DWIDTH 28 0
BBX 28 67 0 0
BITMAP
06001800
0F003C00
0F003C00
0F003C00
0F003C00
0F003C00
0F003C00
0F003C00
0F003C00
0F003C00
0F003C00
0F003C00
0F003C00
0F003C00
0F003C00
0F003C00
0F003C00
0F003C00
0F003C00
0F003C00
0F003C00
0F003C00
0F003C00
0F003C00
0F003C00
0F003C00
0F003C00
0F003C00
0F003C00
0F003C00
0F003C00
0F003C00
0F003C00
0F003C00
0F007C00
0F007800
0F00F800
FFFFF000
FFFFE000
FFFFF000
FFFFF800
0F00F800
0F007C00
0F003C00
0F003C00
0F003C00
0F003C00
0F003C00
0F003C00
0F003C00
0F003C00
0F003C00
0F003C00
0F003C00
0F003C00
0F003C00
0F003C00
0F003C00
0F003C00
0F003C00
0F003C00
0F003E00
0F001F00
0F001FC0
0F000FF0
0F0007F0
060001F0
ENDCHAR
STARTCHAR 004C
ENCODING 76
SWIDTH 197 0
DWIDTH 19 0
BBX 17 67 2 0
BITMAP
600000
F00000
F00000
F00000
F00000
F00000
F00000
F00000
F00000
F00000
F00000
F00000
F00000
F00000
F00000
F00000
F00000
F00000
F00000
F00000
F00000
F00000
F00000
F00000
F00000
F00000
F00000
F00000
F00000
F00000
F00000
F00000
F00000
F00000
F00000
F00000
F00000
F00000
F00000
F00000
F00000
F00000
F00000
F00000
F00000
F00000
F00000
F00000
F00000
F00000
F00000
F00000
F00000
F00000
F00000
F00000
F00000
F00000
F00000
F00000
F00000
F00000
F00000
FFFF00
FFFF80
FFFF80
7FFF00
ENDCHAR
STARTCHAR 004D
ENCODING 77
SWIDTH 385 0
DWIDTH 37 0
BBX 32 68 2 0
BITMAP
07F80FC0
1FFC3FF0
3FFE7FFC
7FFFFFFC
7C0FF83E
F807E01E
F007E00F
F003C00F
F003C00F
F003C00F
F003C00F
F003C00F
F003C00F
F003C00F
F003C00F
F003C00F
F003C00F
F003C00F
F003C00F
F003C00F
F003C00F
F003C00F
F003C00F
F003C00F
F003C00F
F003C00F
F003C00F
F003C00F
F003C00F
F003C00F
F003C00F
F003C00F
F003C00F
F003C00F
F003C00F
F003C00F
F003C00F
F003C00F
F003C00F
F003C00F
F003C00F
F003C00F
F003C00F
F003C00F
F003C00F
F003C00F
F003C00F
F003C00F
F003C00F
F003C00F
F003C00F
F003C00F
F003C00F
F003C00F
F003C00F
F003C00F
F003C00F
F003C00F
F003C00F
F003C00F
F003C00F
F003C00F
F003C00F
F003C00F
F003C00F
F003C00F
F003C00F
60018006
ENDCHAR
STARTCHAR 004E
ENCODING 78
SWIDTH 239 0
DWIDTH 23 0
BBX 19 68 2 0
BITMAP
01F800
67FF00
FFFF80
FFFF80
FE07C0
FC03C0
F803E0
F001E0
F001E0
F001E0
F001E0
F001E0
F001E0
F001E0
F001E0
F001E0
F001E0
F001E0
F001E0
F001E0
F001E0
F001E0
F001E0
F001E0
F001E0
F001E0
F001E0
F001E0
F001E0
F001E0
F001E0
F001E0
F001E0
F001E0
F001E0
F001E0
F001E0
F001E0
F001E0
F001E0
F001E0
F001E0
F001E0
F001E0
F001E0
F001E0
F001E0
F001E0
F001E0
F001E0
F001E0
F001E0
F001E0
F001E0
F001E0
F001E0
F001E0
F001E0
F001E0
F001E0
F001E0
F001E0
F001E0
F001E0
F001E0
F001E0
F001E0
6000E0
ENDCHAR
STARTCHAR 004F
ENCODING 79
SWIDTH 239 0
DWIDTH 23 0
BBX 19 69 2 -1
BITMAP
03F800
1FFE00
3FFF00
7FFF80
7C07C0
7803C0
F003E0
F001E0
F001E0
F001E0
F001E0
F001E0
F001E0
F001E0
F001E0
F001E0
F001E0
F001E0
F001E0
F001E0
F001E0
F001E0
F001E0
F001E0
F001E0
F001E0
F001E0
F001E0
F001E0
F001E0
F001E0
F001E0
F001E0
F001E0
F001E0
F001E0
F001E0
F001E0
F001E0
F001E0
F001E0
F001E0
F001E0
F001E0
F001E0
F001E0
F001E0
F001E0
F001E0
F001E0
F001E0
F001E0
F001E0
F001E0
F001E0
F001E0
F001E0
F001E0
F001E0
F001E0
F001E0
F001E0
F803E0
7803C0
7E0FC0
3FFF80
3FFF80
1FFE00
03F800
ENDCHAR
STARTCHAR 0050
ENCODING 80
SWIDTH 239 0
DWIDTH 23 0
BBX 22 67 0 0
BITMAP
0FFF80
0FFFE0
0FFFF0
0FFFF8
0F00F8
0F0078
0F007C
0F003C
0F003C
0F003C
0F003C
0F003C
0F003C
0F003C
0F003C
0F003C
0F003C
0F003C
0F003C
0F003C
0F003C
0F003C
0F003C
0F003C
0F003C
0F003C
0F003C
0F003C
0F003C
0F003C
0F003C
0F003C
0F003C
0F003C
0F007C
0F0078
0F00F8
FFFFF0
FFFFF0
FFFFE0
FFFF00
0F0000
0F0000
0F0000
0F0000
0F0000
0F0000
0F0000
0F0000
0F0000
0F0000
0F0000
0F0000
0F0000
0F0000
0F0000
0F0000
0F0000
0F0000
0F0000
0F0000
0F0000
0F0000
0F0000
0F0000
0F0000
060000
ENDCHAR
STARTCHAR 0051
ENCODING 81
SWIDTH 239 0
DWIDTH 23 0
BBX 21 70 2 -2
BITMAP
07F800
1FFE00
3FFF00
7FFF80
7C0FC0
7803C0
F003E0
F001E0
F001E0
F001E0
F001E0
F001E0
F001E0
F001E0
F001E0
F001E0
F001E0
F001E0
F001E0
F001E0
F001E0
F001E0
F001E0
F001E0
F001E0
F001E0
F001E0
F001E0
F001E0
F001E0
F001E0
F001E0
F001E0
F001E0
F001E0
F001E0
F001E0
F001E0
F001E0
F001E0
F001E0
F001E0
F001E0
F001E0
F001E0
F001E0
F001E0
F001E0
F001E0
F001E0
F001E0
F001E0
F001E0
F001E0
F001E0
F001E0
F001E0
F001E0
F001E0
F0F1E0
F0F9E0
F0FFE0
F03FE0
781FE0
780FC0
3F1FE0
3FFFF0
0FFEF8
03F878
000018
ENDCHAR
STARTCHAR 0052
ENCODING 82
SWIDTH 291 0
DWIDTH 28 0
BBX 28 67 0 0
BITMAP
0FFF8000
0FFFE000
0FFFF000
0FFFF800
0F00F800
0F007800
0F003C00
0F003C00
0F003C00
0F003C00
0F003C00
0F003C00
0F003C00
0F003C00
0F003C00
0F003C00
0F003C00
0F003C00
0F003C00
0F003C00
0F003C00
0F003C00
0F003C00
0F003C00
0F003C00
0F003C00
0F003C00
0F003C00
0F003C00
0F003C00
0F003C00
0F003C00
0F003C00
0F003C00
0F003C00
0F007800
0F00F800
FFFFF000
FFFFE000
FFFFF000
FFFFF800
0F00F800
0F007C00
0F007C00
0F003C00
0F003C00
0F003C00
0F003C00
0F003C00
0F003C00
0F003C00
0F003C00
0F003C00
0F003C00
0F003C00
0F003C00
0F003C00
0F003C00
0F003C00
0F003C00
0F003E00
0F001E00
0F001F00
0F000FC0
0F0007E0
0F0003F0
060001F0
ENDCHAR
STARTCHAR 0053
ENCODING 83
SWIDTH 229 0
DWIDTH 22 0
BBX 19 69 2 -1
BITMAP
03F800
1FFE00
3FFF00
7FFF80
7C0FC0
7803C0
F803E0
F001E0
F001E0
F001E0
F001E0
F001E0
F001E0
F001E0
F001E0
F001E0
F00000
F00000
F00000
F00000
F00000
F00000
F00000
F00000
F00000
F00000
F00000
F00000
F00000
F00000
F00000
F00000
F00000
F00000
F00000
F80000
7C0000
7F0000
3FF000
1FFE00
07FF00
007F80
000FC0
0003C0
0003E0
0001E0
0001E0
0001E0
0001E0
0001E0
0001E0
2001E0
F001E0
F001E0
F001E0
F001E0
F001E0
F001E0
F001E0
F001E0
F001E0
F001E0
F003E0
7803C0
7C0FC0
3FFF80
3FFF80
0FFF00
03F800
ENDCHAR
STARTCHAR 0054
ENCODING 84
SWIDTH 187 0
DWIDTH 18 0
BBX 18 67 0 0
BITMAP
7FFF80
FFFFC0
FFFFC0
7FFF80
01E000
01E000
01E000
01E000
01E000
01E000
01E000
01E000
01E000
01E000
01E000
01E000
01E000
01E000
01E000
01E000
01E000
01E000
01E000
01E000
01E000
01E000
01E000
01E000
01E000
01E000
01E000
01E000
01E000
01E000
01E000
01E000
01E000
01E000
01E000
01E000
01E000
01E000
01E000
01E000
01E000
01E000
01E000
01E000
01E000
01E000
01E000
01E000
01E000
01E000
01E000
01E000
01E000
01E000
01E000
01E000
01E000
01E000
01E000
01E000
01E000
01E000
00C000
ENDCHAR
STARTCHAR 0055
ENCODING 85
SWIDTH 229 0
DWIDTH 22 0
BBX 18 68 2 -1
BITMAP
600180
F003C0
F003C0
F003C0
F003C0
F003C0
F003C0
F003C0
F003C0
F003C0
F003C0
F003C0
F003C0
F003C0
F003C0
F003C0
F003C0
F003C0
F003C0
F003C0
F003C0
F003C0
F003C0
F003C0
F003C0
F003C0
F003C0
F003C0
F003C0
F003C0
F003C0
F003C0
F003C0
F003C0
F003C0
F003C0
F003C0
F003C0
F003C0
F003C0
F003C0
F003C0
F003C0
F003C0
F003C0
F003C0
F003C0
F003C0
F003C0
F003C0
F003C0
F003C0
F003C0
F003C0
F003C0
F003C0
F003C0
F003C0
F003C0
F003C0
F003C0
F007C0
780780
7C0F80
7FFF80
3FFF00
1FFE00
03F800
ENDCHAR
STARTCHAR 0056
ENCODING 86
SWIDTH 218 0
DWIDTH 21 0
BBX 21 67 0 0
BITMAP
600030
F00078
F00078
F00078
F00078
F00078
700070
7000F0
7800F0
7800F0
7800F0
7800F0
7800F0
7800F0
3800E0
3C01E0
3C01E0
3C01E0
3C01E0
3C01E0
3C01E0
3C01E0
1C01C0
1E03C0
1E03C0
1E03C0
1E03C0
1E03C0
1E03C0
1E03C0
0E0380
0F0780
0F0780
0F0780
0F0780
0F0780
0F0780
0F0700
070700
078F00
078F00
078F00
078F00
078F00
078F00
038E00
03CE00
03DE00
03DE00
03DE00
03DE00
03DE00
03DE00
01DC00
01FC00
01FC00
01FC00
01FC00
01FC00
01FC00
01F800
00F800
00F800
00F800
00F800
00F800
007000
ENDCHAR
STARTCHAR 0057
ENCODING 87
SWIDTH 385 0
DWIDTH 37 0
BBX 32 68 2 -1
BITMAP
60018006
F003C00F
F003C00F
F003C00F
F003C00F
F003C00F
F003C00F
F003C00F
F003C00F
F003C00F
F003C00F
F003C00F
F003C00F
F003C00F
F003C00F
F003C00F
F003C00F
F003C00F
F003C00F
F003C00F
F003C00F
F003C00F
F003C00F
F003C00F
F003C00F
F003C00F
F003C00F
F003C00F
F003C00F
F003C00F
F003C00F
F003C00F
F003C00F
F003C00F
F003C00F
F003C00F
F003C00F
F003C00F
F003C00F
F003C00F
F003C00F
F003C00F
F003C00F
F003C00F
F003C00F
F003C00F
F003C00F
F003C00F
F003C00F
F003C00F
F003C00F
F003C00F
F003C00F
F003C00F
F003C00F
F003C00F
F003C00F
F003C00F
F003C00F
F003C00F
F003C00F
F007E01F
7807E01E
7C1FF83E
7FFFFFFE
3FFE7FFC
1FFC3FF8
07F00FE0
ENDCHAR
STARTCHAR 0058
ENCODING 88
SWIDTH 218 0
DWIDTH 21 0
BBX 20 67 0 0
BITMAP
600060
F000F0
F000F0
F000F0
F000F0
7801E0
7801E0
7801E0
7801E0
3C01E0
3C03C0
3C03C0
3C03C0
1E03C0
1E0780
1E0780
1E0780
0E0780
0F0F00
0F0F00
0F0F00
070F00
078E00
079E00
079E00
079E00
03DC00
03FC00
03FC00
03FC00
01F800
01F800
01F800
01F800
01F800
01F800
01F800
03FC00
03FC00
03FC00
03DC00
07DE00
079E00
079E00
078E00
0F8E00
0F0F00
0F0F00
0F0700
0F0700
1E0780
1E0780
1E0780
1E0380
3C03C0
3C03C0
3C03C0
3C01C0
7801E0
7801E0
7801E0
7800E0
F000F0
F000F0
F000F0
F000F0
600070
ENDCHAR
STARTCHAR 0059
ENCODING 89
SWIDTH 229 0
DWIDTH 22 0
BBX 18 68 2 -1
BITMAP
600180
F003C0
F003C0
F003C0
F003C0
F003C0
F003C0
F003C0
F003C0
F003C0
F003C0
F003C0
F003C0
F003C0
F003C0
F003C0
F003C0
F003C0
F003C0
F003C0
F003C0
F003C0
F003C0
F003C0
F003C0
F003C0
F003C0
F003C0
F003C0
F003C0
F003C0
F003C0
F003C0
F003C0
F003C0
7807C0
7807C0
7FFFC0
3FFFC0
1FFFC0
07F3C0
0003C0
0003C0
0003C0
0003C0
0003C0
0003C0
0003C0
0003C0
0003C0
0003C0
F003C0
F003C0
F003C0
F003C0
F003C0
F003C0
F003C0
F003C0
F003C0
F003C0
F003C0
780780
7C0F80
7FFF00
3FFF00
1FFE00
07F000
ENDCHAR
STARTCHAR 005A
ENCODING 90
SWIDTH 197 0
DWIDTH 19 0
BBX 18 67 0 0
BITMAP
7FFF00
FFFF80
FFFF80
7FFF80
000780
000780
000780
000780
000F00
000F00
000F00
000F00
001F00
001E00
001E00
001E00
001E00
003C00
003C00
003C00
003C00
003C00
007800
007800
007800
007800
00F800
00F000
00F000
00F000
00F000
01E000
01E000
01E000
01E000
01E000
03C000
03C000
03C000
03C000
07C000
078000
078000
078000
078000
0F0000
0F0000
0F0000
0F0000
0F0000
1E0000
1E0000
1E0000
1E0000
3C0000
3C0000
3C0000
3C0000
3C0000
780000
780000
780000
780000
7FFF80
7FFFC0
7FFFC0
7FFF80
ENDCHAR
STARTCHAR 005B
ENCODING 91
SWIDTH 135 0
DWIDTH 13 0
BBX 9 67 4 0
BITMAP
7F00
FF80
FF80
FF00
F000
F000
F000
F000
F000
F000
F000
F000
F000
F000
F000
F000
F000
F000
F000
F000
F000
F000
F000
F000
F000
F000
F000
F000
F000
F000
F000
F000
F000
F000
F000
F000
F000
F000
F000
F000
F000
F000
F000
F000
F000
F000
F000
F000
F000
F000
F000
F000
F000
F000
F000
F000
F000
F000
F000
F000
F000
F000
F000
FF00
FF80
FF80
7F00
ENDCHAR
STARTCHAR 005C
ENCODING 92
SWIDTH 135 0
DWIDTH 13 0
BBX 11 67 1 0
BITMAP
E000
F000
F000
F000
F000
F000
7000
7000
7000
7000
7800
7800
7800
7800
7800
3800
3800
3800
3C00
3C00
3C00
3C00
3C00
1C00
1C00
1C00
1C00
1E00
1E00
1E00
1E00
1E00
0E00
0E00
0E00
0F00
0F00
0F00
0F00
0F00
0F00
0700
0700
0700
0780
0780
0780
0780
0780
0380
0380
0380
03C0
03C0
03C0
03C0
03C0
03C0
01C0
01C0
01C0
01E0
01E0
01E0
01E0
01E0
00E0
ENDCHAR
STARTCHAR 005D
ENCODING 93
SWIDTH 135 0
DWIDTH 13 0
BBX 9 67 1 0
BITMAP
7F00
FF80
FF80
7F80
0780
0780
0780
0780
0780
0780
0780
0780
0780
0780
0780
0780
0780
0780
0780
0780
0780
0780
0780
0780
0780
0780
0780
0780
0780
0780
0780
0780
0780
0780
0780
0780
0780
0780
0780
0780
0780
0780
0780
0780
0780
0780
0780
0780
0780
0780
0780
0780
0780
0780
0780
0780
0780
0780
0780
0780
0780
0780
0780
7F80
FF80
FF80
7F00
ENDCHAR
STARTCHAR 005E
ENCODING 94
SWIDTH 406 0
DWIDTH 39 0
BBX 36 25 2 41
BITMAP
0001F80000
0001F80000
0003FC0000
0007FE0000
0007FE0000
000FFF0000
000F9F8000
001F9F8000
003F0FC000
003E07C000
007E07E000
00FC03F000
00F801F000
01F801F800
01F000FC00
03E000FC00
07E0007E00
07C0003E00
0FC0003F00
1F80001F80
1F00000F80
3F00000FC0
3E000007C0
7C000003E0
FC000003F0
ENDCHAR
STARTCHAR 005F
ENCODING 95
SWIDTH 385 0
DWIDTH 37 0
BBX 37 3 0 -8
BITMAP
FFFFFFFFF8
FFFFFFFFF8
FFFFFFFFF8
ENDCHAR
STARTCHAR 0060
ENCODING 96
SWIDTH 229 0
DWIDTH 22 0
BBX 13 11 3 69
BITMAP
6000
F000
F800
7E00
3F00
1F80
07E0
03F0
01F8
0078
0038
ENDCHAR
STARTCHAR 0061
ENCODING 97
SWIDTH 260 0
DWIDTH 25 0
BBX 22 68 0 0
BITMAP
003F80
01FFE0
03FFF0
07FFF8
0780F8
078078
0F003C
0F003C
0F003C
0F003C
0F003C
0F003C
0F003C
0F003C
0F003C
0F003C
0F003C
0F003C
0F003C
0F003C
0F003C
0F003C
0F003C
0F003C
0F003C
0F003C
0F003C
0F003C
0F003C
0F003C
0F003C
0F003C
0F003C
0F003C
0F003C
0F003C
0F003C
0F003C
FFFFFC
FFFFFC
FFFFFC
FFFFFC
0F003C
0F003C
0F003C
0F003C
0F003C
0F003C
0F003C
0F003C
0F003C
0F003C
0F003C
0F003C
0F003C
0F003C
0F003C
0F003C
0F003C
0F003C
0F003C
0F003C
0F003C
0F003C
0F003C
0F003C
0F003C
060018
ENDCHAR
STARTCHAR 0062
ENCODING 98
SWIDTH 260 0
DWIDTH 25 0
BBX 22 67 0 0
BITMAP
0FFF80
0FFFE0
0FFFF0
0FFFF8
0F00F8
0F0078
0F007C
0F003C
0F003C
0F003C
0F003C
0F003C
0F003C
0F003C
0F003C
0F003C
0F003C
0F003C
0F003C
0F003C
0F003C
0F003C
0F003C
0F003C
0F003C
0F003C
0F003C
0F003C
0F003C
0F003C
0F003C
0F003C
0F003C
0F003C
0F007C
0F0078
0F00F8
FFFFF0
FFFFE0
FFFFF0
FFFFF8
0F00F8
0F007C
0F003C
0F003C
0F003C
0F003C
0F003C
0F003C
0F003C
0F003C
0F003C
0F003C
0F003C
0F003C
0F003C
0F003C
0F003C
0F003C
0F003C
0F007C
0F0078
0F00F8
0FFFF0
0FFFF0
0FFFE0
0FFF00
ENDCHAR
STARTCHAR 0063
ENCODING 99
SWIDTH 229 0
DWIDTH 22 0
BBX 18 69 2 -1
BITMAP
07F000
1FFE00
3FFF00
7FFF80
7C0F80
780780
F003C0
F003C0
F003C0
F003C0
F003C0
F003C0
F003C0
F003C0
F003C0
F003C0
F003C0
F00000
F00000
F00000
F00000
F00000
F00000
F00000
F00000
F00000
F00000
F00000
F00000
F00000
F00000
F00000
F00000
F00000
F00000
F00000
F00000
F00000
F00000
F00000
F00000
F00000
F00000
F00000
F00000
F00000
F00000
F00000
F00000
F00000
F00000
F00180
F003C0
F003C0
F003C0
F003C0
F003C0
F003C0
F003C0
F003C0
F003C0
F003C0
F007C0
780780
7C0F80
7FFF80
3FFF00
1FFE00
07F800
ENDCHAR
STARTCHAR 0064
ENCODING 100
SWIDTH 239 0
DWIDTH 23 0
BBX 18 67 3 0
BITMAP
FFF800
FFFE00
FFFF00
FFFF80
F00F80
F00780
F007C0
F003C0
F003C0
F003C0
F003C0
F003C0
F003C0
F003C0
F003C0
F003C0
F003C0
F003C0
F003C0
F003C0
F003C0
F003C0
F003C0
F003C0
F003C0
F003C0
F003C0
F003C0
F003C0
F003C0
F003C0
F003C0
F003C0
F003C0
F003C0
F003C0
F003C0
F003C0
F003C0
F003C0
F003C0
F003C0
F003C0
F003C0
F003C0
F003C0
F003C0
F003C0
F003C0
F003C0
F003C0
F003C0
F003C0
F003C0
F003C0
F003C0
F003C0
F003C0
F003C0
F003C0
F003C0
F00780
F00F80
FFFF00
FFFF00
FFFE00
FFF000
ENDCHAR
STARTCHAR 0065
ENCODING 101
SWIDTH 229 0
DWIDTH 22 0
BBX 21 67 0 0
BITMAP
07FFF8
0FFFF8
0FFFF8
0FFFF0
0F0000
0F0000
0F0000
0F0000
0F0000
0F0000
0F0000
0F0000
0F0000
0F0000
0F0000
0F0000
0F0000
0F0000
0F0000
0F0000
0F0000
0F0000
0F0000
0F0000
0F0000
0F0000
0F0000
0F0000
0F0000
0F0000
0F0000
0F0000
0F0000
0F0000
0F0000
0F0000
0F0000
FFFFF0
FFFFF8
FFFFF8
FFFFF8
0F0000
0F0000
0F0000
0F0000
0F0000
0F0000
0F0000
0F0000
0F0000
0F0000
0F0000
0F0000
0F0000
0F0000
0F0000
0F0000
0F0000
0F0000
0F0000
0F0000
0F0000
0F0000
0FFFF8
0FFFF8
0FFFF8
07FFF0
ENDCHAR
STARTCHAR 0066
ENCODING 102
SWIDTH 229 0
DWIDTH 22 0
BBX 21 67 0 0
BITMAP
07FFF8
0FFFF8
0FFFF8
0FFFF0
0F0000
0F0000
0F0000
0F0000
0F0000
0F0000
0F0000
0F0000
0F0000
0F0000
0F0000
0F0000
0F0000
0F0000
0F0000
0F0000
0F0000
0F0000
0F0000
0F0000
0F0000
0F0000
0F0000
0F0000
0F0000
0F0000
0F0000
0F0000
0F0000
0F0000
0F0000
0F0000
0F0000
FFFFF0
FFFFF8
FFFFF8
FFFFF8
0F0000
0F0000
0F0000
0F0000
0F0000
0F0000
0F0000
0F0000
0F0000
0F0000
0F0000
0F0000
0F0000
0F0000
0F0000
0F0000
0F0000
0F0000
0F0000
0F0000
0F0000
0F0000
0F0000
0F0000
0F0000
060000
ENDCHAR
STARTCHAR 0067
ENCODING 103
SWIDTH 239 0
DWIDTH 23 0
BBX 19 69 2 -1
BITMAP
03F800
1FFE00
3FFF80
7FFF80
7C07C0
7803C0
F003E0
F001E0
F001E0
F001E0
F001E0
F001E0
F001E0
F001E0
F001E0
F001E0
F001E0
F00000
F00000
F00000
F00000
F00000
F00000
F00000
F00000
F00000
F00000
F00000
F00000
F00000
F00000
F00000
F00000
F00000
F00000
F00000
F00000
F00000
F03FC0
F07FE0
F07FE0
F03FE0
F001E0
F001E0
F001E0
F001E0
F001E0
F001E0
F001E0
F001E0
F001E0
F001E0
F001E0
F001E0
F001E0
F001E0
F001E0
F001E0
F001E0
F001E0
F001E0
F001E0
F803E0
7803C0
7E07C0
3FFF80
3FFF80
0FFE00
03F800
ENDCHAR
STARTCHAR 0068
ENCODING 104
SWIDTH 260 0
DWIDTH 25 0
BBX 22 67 0 0
BITMAP
060018
0F003C
0F003C
0F003C
0F003C
0F003C
0F003C
0F003C
0F003C
0F003C
0F003C
0F003C
0F003C
0F003C
0F003C
0F003C
0F003C
0F003C
0F003C
0F003C
0F003C
0F003C
0F003C
0F003C
0F003C
0F003C
0F003C
0F003C
0F003C
0F003C
0F003C
0F003C
0F003C
0F003C
0F003C
0F003C
0F003C
FFFFFC
FFFFFC
FFFFFC
FFFFFC
0F003C
0F003C
0F003C
0F003C
0F003C
0F003C
0F003C
0F003C
0F003C
0F003C
0F003C
0F003C
0F003C
0F003C
0F003C
0F003C
0F003C
0F003C
0F003C
0F003C
0F003C
0F003C
0F003C
0F003C
0F003C
060018
ENDCHAR
STARTCHAR 0069
ENCODING 105
SWIDTH 93 0
DWIDTH 9 0
BBX 4 67 2 0
BITMAP
60
F0
F0
F0
F0
F0
F0
F0
F0
F0
F0
F0
F0
F0
F0
F0
F0
F0
F0
F0
F0
F0
F0
F0
F0
F0
F0
F0
F0
F0
F0
F0
F0
F0
F0
F0
F0
F0
F0
F0
F0
F0
F0
F0
F0
F0
F0
F0
F0
F0
F0
F0
F0
F0
F0
F0
F0
F0
F0
F0
F0
F0
F0
F0
F0
F0
60
ENDCHAR
STARTCHAR 006A
ENCODING 106
SWIDTH 218 0
DWIDTH 21 0
BBX 18 68 0 -1
BITMAP
000180
0003C0
0003C0
0003C0
0003C0
0003C0
0003C0
0003C0
0003C0
0003C0
0003C0
0003C0
0003C0
0003C0
0003C0
0003C0
0003C0
0003C0
0003C0
0003C0
0003C0
0003C0
0003C0
0003C0
0003C0
0003C0
0003C0
0003C0
0003C0
0003C0
0003C0
0003C0
0003C0
0003C0
0003C0
0003C0
0003C0
0003C0
0003C0
0003C0
0003C0
0003C0
0003C0
0003C0
0003C0
0003C0
0003C0
0003C0
0003C0
0003C0
0003C0
6003C0
F003C0
F003C0
F003C0
F003C0
F003C0
F003C0
F003C0
F003C0
F003C0
F007C0
780780
7C0F80
3FFF80
3FFF00
1FFE00
07F000
ENDCHAR
STARTCHAR 006B
ENCODING 107
SWIDTH 291 0
DWIDTH 28 0
BBX 28 67 0 0
BITMAP
06001800
0F003C00
0F003C00
0F003C00
0F003C00
0F003C00
0F003C00
0F003C00
0F003C00
0F003C00
0F003C00
0F003C00
0F003C00
0F003C00
0F003C00
0F003C00
0F003C00
0F003C00
0F003C00
0F003C00
0F003C00
0F003C00
0F003C00
0F003C00
0F003C00
0F003C00
0F003C00
0F003C00
0F003C00
0F003C00
0F003C00
0F003C00
0F003C00
0F003C00
0F007C00
0F007800
0F00F800
FFFFF000
FFFFE000
FFFFF000
FFFFF800
0F00F800
0F007C00
0F003C00
0F003C00
0F003C00
0F003C00
0F003C00
0F003C00
0F003C00
0F003C00
0F003C00
0F003C00
0F003C00
0F003C00
0F003C00
0F003C00
0F003C00
0F003C00
0F003C00
0F003C00
0F003E00
0F001F00
0F001FC0
0F000FF0
0F0007F0
060001F0
ENDCHAR
STARTCHAR 006C
ENCODING 108
SWIDTH 197 0
DWIDTH 19 0
BBX 17 67 2 0
BITMAP
600000
F00000
F00000
F00000
F00000
F00000
F00000
F00000
F00000
F00000
F00000
F00000
F00000
F00000
F00000
F00000
F00000
F00000
F00000
F00000
F00000
F00000
F00000
F00000
F00000
F00000
F00000
F00000
F00000
F00000
F00000
F00000
F00000
F00000
F00000
F00000
F00000
F00000
F00000
F00000
F00000
F00000
F00000
F00000
F00000
F00000
F00000
F00000
F00000
F00000
F00000
F00000
F00000
F00000
F00000
F00000
F00000
F00000
F00000
F00000
F00000
F00000
F00000
FFFF00
FFFF80
FFFF80
7FFF00
ENDCHAR
STARTCHAR 006D
ENCODING 109
SWIDTH 385 0
DWIDTH 37 0
BBX 32 68 2 0
BITMAP
07F80FC0
1FFC3FF0
3FFE7FFC
7FFFFFFC
7C0FF83E
F807E01E
F007E00F
F003C00F
F003C00F
F003C00F
F003C00F
F003C00F
F003C00F
F003C00F
F003C00F
F003C00F
F003C00F
F003C00F
F003C00F
F003C00F
F003C00F
F003C00F
F003C00F
F003C00F
F003C00F
F003C00F
F003C00F
F003C00F
F003C00F
F003C00F
F003C00F
F003C00F
F003C00F
F003C00F
F003C00F
F003C00F
F003C00F
F003C00F
F003C00F
F003C00F
F003C00F
F003C00F
F003C00F
F003C00F
F003C00F
F003C00F
F003C00F
F003C00F
F003C00F
F003C00F
F003C00F
F003C00F
F003C00F
F003C00F
F003C00F
F003C00F
F003C00F
F003C00F
F003C00F
F003C00F
F003C00F
F003C00F
F003C00F
F003C00F
F003C00F
F003C00F
F003C00F
60018006
ENDCHAR
STARTCHAR 006E
ENCODING 110
SWIDTH 239 0
DWIDTH 23 0
BBX 19 68 2 0
BITMAP
01F800
67FF00
FFFF80
FFFF80
FE07C0
FC03C0
F803E0
F001E0
F001E0
F001E0
F001E0
F001E0
F001E0
F001E0
F001E0
F001E0
F001E0
F001E0
F001E0
F001E0
F001E0
F001E0
F001E0
F001E0
F001E0
F001E0
F001E0
F001E0
F001E0
F001E0
F001E0
F001E0
F001E0
F001E0
F001E0
F001E0
F001E0
F001E0
F001E0
F001E0
F001E0
F001E0
F001E0
F001E0
F001E0
F001E0
F001E0
F001E0
F001E0
F001E0
F001E0
F001E0
F001E0
F001E0
F001E0
F001E0
F001E0
F001E0
F001E0
F001E0
F001E0
F001E0
F001E0
F001E0
F001E0
F001E0
F001E0
6000E0
ENDCHAR
STARTCHAR 006F
ENCODING 111
SWIDTH 239 0
DWIDTH 23 0
BBX 19 69 2 -1
BITMAP
03F800
1FFE00
3FFF00
7FFF80
7C07C0
7803C0
F003E0
F001E0
F001E0
F001E0
F001E0
F001E0
F001E0
F001E0
F001E0
F001E0
F001E0
F001E0
F001E0
F001E0
F001E0
F001E0
F001E0
F001E0
F001E0
F001E0
F001E0
F001E0
F001E0
F001E0
F001E0
F001E0
F001E0
F001E0
F001E0
F001E0
F001E0
F001E0
F001E0
F001E0
F001E0
F001E0
F001E0
F001E0
F001E0
F001E0
F001E0
F001E0
F001E0
F001E0
F001E0
F001E0
F001E0
F001E0
F001E0
F001E0
F001E0
F001E0
F001E0
F001E0
F001E0
F001E0
F803E0
7803C0
7E0FC0
3FFF80
3FFF80
1FFE00
03F800
ENDCHAR
STARTCHAR 0070
ENCODING 112
SWIDTH 239 0
DWIDTH 23 0
BBX 22 67 0 0
BITMAP
0FFF80
0FFFE0
0FFFF0
0FFFF8
0F00F8
0F0078
0F007C
0F003C
0F003C
0F003C
0F003C
0F003C
0F003C
0F003C
0F003C
0F003C
0F003C
0F003C
0F003C
0F003C
0F003C
0F003C
0F003C
0F003C
0F003C
0F003C
0F003C
0F003C
0F003C
0F003C
0F003C
0F003C
0F003C
0F003C
0F007C
0F0078
0F00F8
FFFFF0
FFFFF0
FFFFE0
FFFF00
0F0000
0F0000
0F0000
0F0000
0F0000
0F0000
0F0000
0F0000
0F0000
0F0000
0F0000
0F0000
0F0000
0F0000
0F0000
0F0000
0F0000
0F0000
0F0000
0F0000
0F0000
0F0000
0F0000
0F0000
0F0000
060000
ENDCHAR
STARTCHAR 0071
ENCODING 113
SWIDTH 239 0
DWIDTH 23 0
BBX 21 70 2 -2
BITMAP
07F800
1FFE00
3FFF00
7FFF80
7C0FC0
7803C0
F003E0
F001E0
F001E0
F001E0
F001E0
F001E0
F001E0
F001E0
F001E0
F001E0
F001E0
F001E0
F001E0
F001E0
F001E0
F001E0
F001E0
F001E0
F001E0
F001E0
F001E0
F001E0
F001E0
F001E0
F001E0
F001E0
F001E0
F001E0
F001E0
F001E0
F001E0
F001E0
F001E0
F001E0
F001E0
F001E0
F001E0
F001E0
F001E0
F001E0
F001E0
F001E0
F001E0
F001E0
F001E0
F001E0
F001E0
F001E0
F001E0
F001E0
F001E0
F001E0
F001E0
F0F1E0
F0F9E0
F0FFE0
F03FE0
781FE0
780FC0
3F1FE0
3FFFF0
0FFEF8
03F878
000018
ENDCHAR
STARTCHAR 0072
ENCODING 114
SWIDTH 291 0
DWIDTH 28 0
BBX 28 67 0 0
BITMAP
0FFF8000
0FFFE000
0FFFF000
0FFFF800
0F00F800
0F007800
0F003C00
0F003C00
0F003C00
0F003C00
0F003C00
0F003C00
0F003C00
0F003C00
0F003C00
0F003C00
0F003C00
0F003C00
0F003C00
0F003C00
0F003C00
0F003C00
0F003C00
0F003C00
0F003C00
0F003C00
0F003C00
0F003C00
0F003C00
0F003C00
0F003C00
0F003C00
0F003C00
0F003C00
0F003C00
0F007800
0F00F800
FFFFF000
FFFFE000
FFFFF000
FFFFF800
0F00F800
0F007C00
0F007C00
0F003C00
0F003C00
0F003C00
0F003C00
0F003C00
0F003C00
0F003C00
0F003C00
0F003C00
0F003C00
0F003C00
0F003C00
0F003C00
0F003C00
0F003C00
0F003C00
0F003E00
0F001E00
0F001F00
0F000FC0
0F0007E0
0F0003F0
060001F0
ENDCHAR
STARTCHAR 0073
ENCODING 115
SWIDTH 229 0
DWIDTH 22 0
BBX 19 69 2 -1
BITMAP
03F800
1FFE00
3FFF00
7FFF80
7C0FC0
7803C0
F803E0
F001E0
F001E0
F001E0
F001E0
F001E0
F001E0
F001E0
F001E0
F001E0
F00000
F00000
F00000
F00000
F00000
F00000
F00000
F00000
F00000
F00000
F00000
F00000
F00000
F00000
F00000
F00000
F00000
F00000
F00000
F80000
7C0000
7F0000
3FF000
1FFE00
07FF00
007F80
000FC0
0003C0
0003E0
0001E0
0001E0
0001E0
0001E0
0001E0
0001E0
2001E0
F001E0
F001E0
F001E0
F001E0
F001E0
F001E0
F001E0
F001E0
F001E0
F001E0
F003E0
7803C0
7C0FC0
3FFF80
3FFF80
0FFF00
03F800
ENDCHAR
STARTCHAR 0074
ENCODING 116
SWIDTH 187 0
DWIDTH 18 0
BBX 18 67 0 0
BITMAP
7FFF80
FFFFC0
FFFFC0
7FFF80
01E000
01E000
01E000
01E000
01E000
01E000
01E000
01E000
01E000
01E000
01E000
01E000
01E000
01E000
01E000
01E000
01E000
01E000
01E000
01E000
01E000
01E000
01E000
01E000
01E000
01E000
01E000
01E000
01E000
01E000
01E000
01E000
01E000
01E000
01E000
01E000
01E000
01E000
01E000
01E000
01E000
01E000
01E000
01E000
01E000
01E000
01E000
01E000
01E000
01E000
01E000
01E000
01E000
01E000
01E000
01E000
01E000
01E000
01E000
01E000
01E000
01E000
00C000
ENDCHAR
STARTCHAR 0075
ENCODING 117
SWIDTH 229 0
DWIDTH 22 0
BBX 18 68 2 -1
BITMAP
600180
F003C0
F003C0
F003C0
F003C0
F003C0
F003C0
F003C0
F003C0
F003C0
F003C0
F003C0
F003C0
F003C0
F003C0
F003C0
F003C0
F003C0
F003C0
F003C0
F003C0
F003C0
F003C0
F003C0
F003C0
F003C0
F003C0
F003C0
F003C0
F003C0
F003C0
F003C0
F003C0
F003C0
F003C0
F003C0
F003C0
F003C0
F003C0
F003C0
F003C0
F003C0
F003C0
F003C0
F003C0
F003C0
F003C0
F003C0
F003C0
F003C0
F003C0
F003C0
F003C0
F003C0
F003C0
F003C0
F003C0
F003C0
F003C0
F003C0
F003C0
F007C0
780780
7C0F80
7FFF80
3FFF00
1FFE00
03F800
ENDCHAR
STARTCHAR 0076
ENCODING 118
SWIDTH 218 0
DWIDTH 21 0
BBX 21 67 0 0
BITMAP
600030
F00078
F00078
F00078
F00078
F00078
700070
7000F0
7800F0
7800F0
7800F0
7800F0
7800F0
7800F0
3800E0
3C01E0
3C01E0
3C01E0
3C01E0
3C01E0
3C01E0
3C01E0
1C01C0
1E03C0
1E03C0
1E03C0
1E03C0
1E03C0
1E03C0
1E03C0
0E0380
0F0780
0F0780
0F0780
0F0780
0F0780
0F0780
0F0700
070700
078F00
078F00
078F00
078F00
078F00
078F00
038E00
03CE00
03DE00
03DE00
03DE00
03DE00
03DE00
03DE00
01DC00
01FC00
01FC00
01FC00
01FC00
01FC00
01FC00
01F800
00F800
00F800
00F800
00F800
00F800
007000
ENDCHAR
STARTCHAR 0077
ENCODING 119
SWIDTH 385 0
DWIDTH 37 0
BBX 32 68 2 -1
BITMAP
60018006
F003C00F
F003C00F
F003C00F
F003C00F
F003C00F
F003C00F
F003C00F
F003C00F
F003C00F
F003C00F
F003C00F
F003C00F
F003C00F
F003C00F
F003C00F
F003C00F
F003C00F
F003C00F
F003C00F
F003C00F
F003C00F
F003C00F
F003C00F
F003C00F
F003C00F
F003C00F
F003C00F
F003C00F
F003C00F
F003C00F
F003C00F
F003C00F
F003C00F
F003C00F
F003C00F
F003C00F
F003C00F
F003C00F
F003C00F
F003C00F
F003C00F
F003C00F
F003C00F
F003C00F
F003C00F
F003C00F
F003C00F
F003C00F
F003C00F
F003C00F
F003C00F
F003C00F
F003C00F
F003C00F
F003C00F
F003C00F
F003C00F
F003C00F
F003C00F
F003C00F
F007E01F
7807E01E
7C1FF83E
7FFFFFFE
3FFE7FFC
1FFC3FF8
07F00FE0
ENDCHAR
STARTCHAR 0078
ENCODING 120
SWIDTH 218 0
DWIDTH 21 0
BBX 20 67 0 0
BITMAP
600060
F000F0
F000F0
F000F0
F000F0
7801E0
7801E0
7801E0
7801E0
3C01E0
3C03C0
3C03C0
3C03C0
1E03C0
1E0780
1E0780
1E0780
0E0780
0F0F00
0F0F00
0F0F00
070F00
078E00
079E00
079E00
079E00
03DC00
03FC00
03FC00
03FC00
01F800
01F800
01F800
01F800
01F800
01F800
01F800
03FC00
03FC00
03FC00
03DC00
07DE00
079E00
079E00
078E00
0F8E00
0F0F00
0F0F00
0F0700
0F0700
1E0780
1E0780
1E0780
1E0380
3C03C0
3C03C0
3C03C0
3C01C0
7801E0
7801E0
7801E0
7800E0
F000F0
F000F0
F000F0
F000F0
600070
ENDCHAR
STARTCHAR 0079
ENCODING 121
SWIDTH 229 0
DWIDTH 22 0
BBX 18 68 2 -1
BITMAP
600180
F003C0
F003C0
F003C0
F003C0
F003C0
F003C0
F003C0
F003C0
F003C0
F003C0
F003C0
F003C0
F003C0
F003C0
F003C0
F003C0
F003C0
F003C0
F003C0
F003C0
F003C0
F003C0
F003C0
F003C0
F003C0
F003C0
F003C0
F003C0
F003C0
F003C0
F003C0
F003C0
F003C0
F003C0
7807C0
7807C0
7FFFC0
3FFFC0
1FFFC0
07F3C0
0003C0
0003C0
0003C0
0003C0
0003C0
0003C0
0003C0
0003C0
0003C0
0003C0
F003C0
F003C0
F003C0
F003C0
F003C0
F003C0
F003C0
F003C0
F003C0
F003C0
F003C0
780780
7C0F80
7FFF00
3FFF00
1FFE00
07F000
ENDCHAR
STARTCHAR 007A
ENCODING 122
SWIDTH 197 0
DWIDTH 19 0
BBX 18 67 0 0
BITMAP
7FFF00
FFFF80
FFFF80
7FFF80
000780
000780
000780
000780
000F00
000F00
000F00
000F00
001F00
001E00
001E00
001E00
001E00
003C00
003C00
003C00
003C00
003C00
007800
007800
007800
007800
00F800
00F000
00F000
00F000
00F000
01E000
01E000
01E000
01E000
01E000
03C000
03C000
03C000
03C000
07C000
078000
078000
078000
078000
0F0000
0F0000
0F0000
0F0000
0F0000
1E0000
1E0000
1E0000
1E0000
3C0000
3C0000
3C0000
3C0000
3C0000
780000
780000
780000
780000
7FFF80
7FFFC0
7FFFC0
7FFF80
ENDCHAR
STARTCHAR 007B
ENCODING 123
SWIDTH 135 0
DWIDTH 13 0
BBX 9 67 4 0
BITMAP
7F00
FF80
FF80
FF00
F000
F000
F000
F000
F000
F000
F000
F000
F000
F000
F000
F000
F000
F000
F000
F000
F000
F000
F000
F000
F000
F000
F000
F000
F000
F000
F000
F000
F000
F000
F000
F000
F000
F000
F000
F000
F000
F000
F000
F000
F000
F000
F000
F000
F000
F000
F000
F000
F000
F000
F000
F000
F000
F000
F000
F000
F000
F000
F000
FF00
FF80
FF80
7F00
ENDCHAR
STARTCHAR 007C
ENCODING 124
SWIDTH 250 0
DWIDTH 24 0
BBX 5 75 10 -13
BITMAP
70
F8
F8
F8
F8
F8
F8
F8
F8
F8
F8
F8
F8
F8
F8
F8
F8
F8
F8
F8
F8
F8
F8
F8
F8
F8
F8
F8
F8
F8
F8
F8
F8
F8
F8
F8
F8
F8
F8
F8
F8
F8
F8
F8
F8
F8
F8
F8
F8
F8
F8
F8
F8
F8
F8
F8
F8
F8
F8
F8
F8
F8
F8
F8
F8
F8
F8
F8
F8
F8
F8
F8
F8
F8
70
ENDCHAR
STARTCHAR 007D
ENCODING 125
SWIDTH 135 0
DWIDTH 13 0
BBX 9 67 1 0
BITMAP
7F00
FF80
FF80
7F80
0780
0780
0780
0780
0780
0780
0780
0780
0780
0780
0780
0780
0780
0780
0780
0780
0780
0780
0780
0780
0780
0780
0780
0780
0780
0780
0780
0780
0780
0780
0780
0780
0780
0780
0780
0780
0780
0780
0780
0780
0780
0780
0780
0780
0780
0780
0780
0780
0780
0780
0780
0780
0780
0780
0780
0780
0780
0780
0780
7F80
FF80
FF80
7F00
ENDCHAR
STARTCHAR 007E
ENCODING 126
SWIDTH 510 0
DWIDTH 49 0
BBX 36 18 6 13
BITMAP
07F8000000
0FFE0000F0
1FFF0000F0
3FFF8000F0
3E0FC000F0
7C07E000F0
7803E000F0
7803F000F0
7801F800F0
F000F801E0
F000FC01E0
F0007E01E0
F0003F03E0
F0003F87C0
F0001FFFC0
F0000FFF80
F00007FF00
000001FE00
ENDCHAR
STARTCHAR 00A0
ENCODING 160
SWIDTH 208 0
DWIDTH 20 0
BBX 0 0 0 0
BITMAP
ENDCHAR
STARTCHAR 00A1
ENCODING 161
SWIDTH 135 0
DWIDTH 13 0
BBX 6 67 4 0
BITMAP
78
FC
FC
FC
FC
78
00
78
78
78
78
78
78
78
78
78
78
78
78
78
78
78
78
78
78
78
78
78
78
78
78
78
78
78
78
78
78
78
78
78
78
78
78
78
78
78
78
78
78
78
78
78
78
78
78
78
78
78
78
78
78
78
78
78
78
78
30
ENDCHAR
STARTCHAR 00A2
ENCODING 162
SWIDTH 239 0
DWIDTH 23 0
BBX 19 49 2 20
BITMAP
00E000
03F800
0FFE00
3FFF00
3FFF80
7CE7C0
78E3C0
F0E1E0
F0E1E0
F0E1E0
F0E1E0
F0E1E0
F0E1E0
F0E1E0
F0E1E0
F0E1E0
F0E1E0
F0E1E0
F0E000
F0E000
F0E000
F0E000
F0E000
F0E000
F0E000
F0E000
F0E000
F0E000
F0E000
F0E0C0
F0E1E0
F0E1E0
F0E1E0
F0E1E0
F0E1E0
F0E1E0
F0E1E0
F0E1E0
F0E1E0
F0E1E0
78E3C0
78E7C0
7EFFC0
3FFF80
0FFF00
03FC00
00E000
00E000
00C000
ENDCHAR
STARTCHAR 00A3
ENCODING 163
SWIDTH 239 0
DWIDTH 23 0
BBX 23 67 0 0
BITMAP
00FE00
03FFC0
07FFE0
0FFFE0
0F81F0
0F00F0
1E00F8
1E0078
1E0078
1E0078
1E0078
1E0078
1E0078
1E0078
1E0078
1E0078
1E0078
0F0000
0F0000
0F0000
0F0000
0F0000
070000
078000
078000
078000
078000
078000
038000
03C000
FFFFF0
FFFFF0
FFFFF0
FFFFF0
03C000
03C000
03C000
03C000
03C000
03C000
03C000
07C000
078000
078000
078000
078000
078000
078000
078000
078000
0F0000
0F0000
0F0000
0F0000
0F0000
1F0000
1E0000
1E0000
1E0000
1E0000
3E0000
3C0000
3C0000
7FFFFC
7FFFFC
7FFFFE
3FFFFC
ENDCHAR
STARTCHAR 00A4
ENCODING 164
SWIDTH 406 0
DWIDTH 39 0
BBX 37 37 1 15
BITMAP
6000000030
F8000000F8
FC03FC01F8
FE1FFFC3F0
7F7FFFF7F0
3FFFFFFFE0
1FFE03FFC0
0FF0007F80
07E0003F00
07C0001F00
0F80000F80
1F000007C0
1E000007C0
1E000003C0
3E000003E0
3C000001E0
3C000001E0
3C000001E0
3C000001E0
3C000001E0
3C000001E0
3C000001E0
3E000003E0
1E000003C0
1E000007C0
1F000007C0
0F80000F80
0FC0001F80
07E0003F00
0FF0007F80
1FFE03FFC0
3FFFFFFFE0
7E7FFFE3F0
7C1FFF81F8
F803FC00F8
7000000078
2000000030
ENDCHAR
STARTCHAR 00A5
ENCODING 165
SWIDTH 239 0
DWIDTH 23 0
BBX 21 67 1 0
BITMAP
300060
7800F0
7800F0
7800F0
7800F0
7800F0
7800F0
7800F0
7800F0
7800F0
7800F0
7800F0
7800F0
7800F0
7800F0
7800F0
7800F0
7800F0
7800F0
7800F0
7800F0
7800F0
7800F0
7800F0
7800F0
7800F0
7800F0
7800F0
7800F0
7800F0
7800F0
7800F0
7800F0
7800F0
7800F0
3C01E0
3C01E0
3F07E0
1FFFC0
0FFF80
03FE00
00F000
00F000
00F000
00F000
00F000
00F000
7FFFF0
FFFFF8
FFFFF8
7FFFF0
00F000
00F000
7FFFE0
FFFFF0
FFFFF0
7FFFF0
00F000
00F000
00F000
00F000
00F000
00F000
00F000
00F000
00F000
006000
ENDCHAR
STARTCHAR 00A6
ENCODING 166
SWIDTH 197 0
DWIDTH 19 0
BBX 5 69 7 -2
BITMAP
F8
F8
F8
F8
F8
F8
F8
F8
F8
F8
F8
F8
F8
F8
F8
F8
F8
F8
F8
F8
F8
F8
F8
F8
F8
F8
F8
F8
00
00
00
00
00
00
00
00
00
00
00
00
00
F8
F8
F8
F8
F8
F8
F8
F8
F8
F8
F8
F8
F8
F8
F8
F8
F8
F8
F8
F8
F8
F8
F8
F8
F8
F8
F8
F8
ENDCHAR
STARTCHAR 00A7
ENCODING 167
SWIDTH 239 0
DWIDTH 23 0
BBX 23 69 0 -1
BITMAP
003F00
00FFC0
03FFE0
07FFF0
07C0F8
0F807C
0F003C
0F001E
1E000E
1E0000
1E0000
1E0000
1E0000
1E0000
0F0000
0F0000
0F8000
07C000
07E000
03F000
01F800
01FC00
03FE00
07FF00
0FFF80
1F8FC0
1F07E0
3E03E0
3C01F0
3C00F8
7800F8
78007C
78003C
78003C
78003C
78003C
3C003C
3C003C
1E0078
1F0078
0F80F8
07C1F0
03E3E0
03F7C0
01FF80
00FF00
007F00
003F00
001F80
000F80
0007C0
0007E0
0003E0
0001E0
0001E0
0000F0
0000F0
0000F0
0000F0
6000F0
F000F0
F001E0
F801E0
7C03E0
7E0FC0
3FFFC0
1FFF80
0FFE00
01F800
ENDCHAR
STARTCHAR 00A8
ENCODING 168
SWIDTH 229 0
DWIDTH 22 0
BBX 15 7 4 70
BITMAP
783C
FC7E
FC7E
FC7E
FC7E
FC7E
783C
ENDCHAR
STARTCHAR 00A9
ENCODING 169
SWIDTH 354 0
DWIDTH 34 0
BBX 30 55 1 0
BITMAP
007FF800
03FFFF00
0FFFFFC0
1FC00FE0
3F0001F0
7C0000F8
78000078
F800007C
F007C03C
F01FE03C
F01FF03C
F03C303C
F038303C
F038303C
F038303C
F038303C
F038303C
F038303C
F038003C
F038003C
F038003C
F038003C
F038003C
F038003C
F038003C
F038003C
F038003C
F038003C
F038003C
F038003C
F038003C
F038003C
F038003C
F038003C
F038003C
F038003C
F038003C
F038103C
F038303C
F038303C
F038303C
F038303C
F038303C
F038303C
F03C703C
F01FF03C
F00FE03C
F800007C
7C000078
7E0000F8
3F0001F0
1FE00FE0
0FFFFFC0
03FFFF00
007FF800
ENDCHAR
STARTCHAR 00AA
ENCODING 170
SWIDTH 260 0
DWIDTH 25 0
BBX 14 42 3 26
BITMAP
03E0
0FF8
0FF8
1C1C
1C1C
1C1C
1C1C
1C1C
1C1C
1C1C
1C1C
1C1C
1C1C
1C1C
1C1C
1C1C
1C1C
1C1C
1C1C
1C1C
1C1C
1C1C
1C1C
7FFC
FFFC
7FFC
1C1C
1C1C
1C1C
1C1C
1C1C
1C1C
1C1C
1C1C
1C1C
1C1C
1C1C
1C1C
1C1C
1C1C
1C1C
0808
ENDCHAR
STARTCHAR 00AB
ENCODING 171
SWIDTH 229 0
DWIDTH 22 0
BBX 16 34 4 3
BITMAP
0387
038F
078F
079F
0F9E
0F1E
0F3E
1F3C
1E3C
1E78
3C78
3CF8
7CF0
78F0
79F0
F1E0
F1E0
F1E0
F1E0
79E0
78F0
7CF0
3CF8
3C78
1E78
1E3C
1E3C
0F3C
0F1E
0F9E
079F
078F
038F
0387
ENDCHAR
STARTCHAR 00AC
ENCODING 172
SWIDTH 1197 0
DWIDTH 115 0
BBX 107 74 4 -8
BITMAP
FFFFFFFFFFFFFFFFFFFFFFFFFFE0
FFFFFFFFFFFFFFFFFFFFFFFFFFE0
FFFFFFFFFFFFFFFFFFFFFFFFFFE0
FF0003FFE7FFC007C000E0003FE0
FFE03FFFC7FFFC3E0FE03E03FFE0
FFF07FFFC7FFFE3C3FF83F07FFE0
FFF03FFFC3FFFC387FFE3F07FFE0
FFF83FFF83FFFC70FFFE7F07FFE0
FFF83FFF83FFFC61FFFF7F07FFE0
FFF83FFF01FFFC41FFFF7F07FFE0
FFF83FFF01FFFCC1FFFF7F07FFE0
FFF81FFF01FFF8C3FFFF7F07FFE0
FFFC1FFE20FFF8C3FFFFFF07FFE0
FFFC1FFE60FFF9C3FFFFFF07FFE0
FFFC1FFC60FFF981FFFFFF07FFE0
FFFC1FFCF07FF1C1FFFFFF07FFE0
FFFE1FFCF07FF3C1FFFFFF07FFE0
FFFE0FF8F07FF3C0FFFFFF07FFE0
FFFE0FF9F83FE3C07FFFFF07FFE0
FFFE0FF9F83FE7E00FFFFF07FFE0
FFFE0FF3F83FE7E00007FF07FFE0
FFFF07F3FC1FE7F00000FF07FFE0
FFFF07E7FC1FC7FC00007F07FFE0
FFFF07E7FC1FCFFF80003F07FFE0
FFFF07E7FE0FCFFFFFC01F07FFE0
FFFF07CFFE0F8FFFFFF81F07FFE0
FFFF83CFFE0F9FFFFFFC0F07FFE0
FFFF839FFF079FFFFFFE0F07FFE0
FFFF839FFF079FFFFFFE0F07FFE0
FFFF839FFF031FFFFFFE0F07FFE0
FFFF833FFF833FFFFFFF0F07FFE0
FFFFC13FFF833FFFFFFF0F07FFE0
FFFF007FFF823FCFFFFF1F07FFE0
FFFC007FFFC07FCFFFFE1F07FFE0
FFF8007FFFC07FCFFFFE1F07FFE0
FFF000FFFFC07FCFFFFE3F07FFE0
FFE3C0FFFFE07FCFFFFC7F07FFE0
FFC7E0FFFFE0FFC7FFF8FF07FFE0
FF8FE1FFFFF0FFC1FFE1FF07FFE0
FF0FE1FFFFF0FFC03F81FE03FFE0
FF0FE1FFFFF0FFF00003E0003FE0
FE0FF3FFFFF1FFFFFFC3FFFFFFE0
FE0FFFFFFFFFFFFFFFC3FFFFFFE0
FE0FFFFFFFFFFFFFFFC3FFFFFFE0
FE0FFFFFFFFFFFFFFFC3FFFFFFE0
FE0FFFFFFFFFFFFFFFC3FFFFFFE0
FE0FFFC03FFF9F81FFC3FFF00FE0
FE0FFE000FFE1E007FC3FFC001E0
FE001C1F03801C001FC00307C1E0
F800187FC18018001F00031FE1E0
E00010FFE0F811F80800021FF1E0
FE0FE1FFF0FC07FE0FC3FC3FF9E0
FE0FC1FFF07C0FFE07C3FC3FF9E0
FE0FC1FFF87C1FFF07C3FC3FF9E0
FE0FC3FFF83C1FFF07C3FC1FFFE0
FE0F83FFF83C1FFF07C3FC0FFFE0
FE0F83FFFC3C1FFF07C3FC03FFE0
FE0F83FFFC3C1FFF07C3FE003FE0
FE0F83FFFC3C1FFF07C3FF0003E0
FE0F83FFFC3C1FFF07C3FF8001E0
FE0F83FFFC3C1FFF07C3FFF000E0
FE0F83FFFC3C1FFF07C3FFFF0060
FE0F83FFFC7C1FFF07C3FFFFE060
FE0FC1FFFC7C1FFF07C3FFFFF060
FE0FC1FFFC7C1FFF07C3FEFFF060
FE0FC0FFF8FC1FFF07C3FEFFF860
FE0FE0FFF9FC1FFF07C1FEFFF8E0
FE0FF07FF9FC1FFF07C1F4FFF8E0
FE0FF87FF3FC1FFF07C1F47FF1E0
FE0FFC3FEFFC1FFF07E0043FE3E0
F803FE0F9FF007FF01F00C0FCFE0
FFFFFFC1FFFFFFFFFFFC7FC07FE0
FFFFFFFFFFFFFFFFFFFFFFFFFFE0
FFFFFFFFFFFFFFFFFFFFFFFFFFE0
ENDCHAR
STARTCHAR 00AD
ENCODING 173
SWIDTH 135 0
DWIDTH 13 0
BBX 9 4 2 26
BITMAP
7F00
FF80
FF80
7F00
ENDCHAR
STARTCHAR 00AE
ENCODING 174
SWIDTH 354 0
DWIDTH 34 0
BBX 30 55 1 0
BITMAP
007FF800
03FFFF00
0FFFFFC0
1FC00FE0
3F0001F0
7C0000F8
78000078
F81F807C
F01FF03C
F01FF83C
F01E1C3C
F01E1C3C
F01E1C3C
F01E1C3C
F01E1C3C
F01E1C3C
F01E1C3C
F01E1C3C
F01E1C3C
F01E1C3C
F01E1C3C
F01E1C3C
F01E1C3C
F01E1C3C
F01E1C3C
F01E1C3C
F01E1C3C
F01E1C3C
F01E3C3C
F07FF83C
F0FFF83C
F07FF83C
F01E3C3C
F01E1C3C
F01E1C3C
F01E1C3C
F01E1C3C
F01E1C3C
F01E1C3C
F01E1C3C
F01E1C3C
F01E1C3C
F01E1C3C
F01E1C3C
F01E0E3C
F01E0F3C
F81E07BC
F800007C
7C000078
7E0000F8
3F8001F0
1FE00FF0
0FFFFFC0
03FFFF80
007FF800
ENDCHAR
STARTCHAR 00AF
ENCODING 175
SWIDTH 229 0
DWIDTH 22 0
BBX 16 4 5 70
BITMAP
7FFE
FFFF
FFFF
7FFE
ENDCHAR
STARTCHAR 00B0
ENCODING 176
SWIDTH 239 0
DWIDTH 23 0
BBX 20 21 1 47
BITMAP
01F800
07FE00
1FFF80
3FFFC0
3E07C0
7C01E0
7801E0
F000F0
F000F0
F000F0
E000F0
F000F0
F000F0
F000F0
7801E0
7C03E0
3E07C0
3FFFC0
1FFF80
07FE00
01F800
ENDCHAR
STARTCHAR 00B1
ENCODING 177
SWIDTH 510 0
DWIDTH 49 0
BBX 45 51 2 -5
BITMAP
00000F000000
00000F000000
00000F000000
00000F000000
00000F000000
00000F000000
00000F000000
00000F000000
00000F000000
00000F000000
00000F000000
00000F000000
00000F000000
00000F000000
00000F000000
00000F000000
00000F000000
00000F000000
00000F000000
00000F000000
00000F000000
7FFFFFFFFFF0
FFFFFFFFFFF8
FFFFFFFFFFF8
7FFFFFFFFFF0
00000F000000
00000F000000
00000F000000
00000F000000
00000F000000
00000F000000
00000F000000
00000F000000
00000F000000
00000F000000
00000F000000
00000F000000
00000F000000
00000F000000
00000F000000
00000F000000
00000F000000
00000F000000
00000F000000
000006000000
000000000000
000000000000
7FFFFFFFFFF0
FFFFFFFFFFF8
FFFFFFFFFFF8
7FFFFFFFFFF0
ENDCHAR
STARTCHAR 00B2
ENCODING 178
SWIDTH 166 0
DWIDTH 16 0
BBX 11 42 3 26
BITMAP
1F00
7F80
7FC0
F3E0
E1E0
E1E0
E1E0
E1E0
E1E0
E1E0
C1E0
01E0
01E0
01E0
01E0
01E0
01E0
01E0
01E0
01E0
01E0
01E0
01E0
03E0
07C0
1F80
7E00
F800
F000
F000
F000
F000
F000
F000
F000
F000
F000
F000
FFE0
FFE0
FFE0
7FE0
ENDCHAR
STARTCHAR 00B3
ENCODING 179
SWIDTH 166 0
DWIDTH 16 0
BBX 12 42 2 25
BITMAP
1F80
3FC0
7FE0
F9F0
F0F0
E0F0
E0F0
E0F0
E0F0
E0F0
E0F0
00F0
00F0
00F0
00F0
00F0
00F0
00F0
01F0
7FE0
FFE0
FFE0
7FF0
01F0
00F0
00F0
00F0
00F0
00F0
00F0
00F0
00F0
E0F0
E0F0
E0F0
E0F0
E0F0
E0F0
F1F0
7FE0
7FE0
1F80
ENDCHAR
STARTCHAR 00B4
ENCODING 180
SWIDTH 229 0
DWIDTH 22 0
BBX 13 11 8 69
BITMAP
0010
0078
00F8
01F0
07E0
0FC0
1F80
3E00
FC00
F000
E000
ENDCHAR
STARTCHAR 00B5
ENCODING 181
SWIDTH 229 0
DWIDTH 22 0
BBX 18 42 2 -9
BITMAP
F003C0
F003C0
F003C0
F003C0
F003C0
F003C0
F003C0
F003C0
F003C0
F003C0
F003C0
F003C0
F003C0
F003C0
F003C0
F003C0
F003C0
F003C0
F003C0
F003C0
F003C0
F003C0
F003C0
F003C0
F003C0
F003C0
F003C0
F80780
F80780
FF3F80
FFFF00
FFFE00
F7F800
F00000
F00000
F00000
F00000
F00000
F00000
F00000
F00000
600000
ENDCHAR
STARTCHAR 00B6
ENCODING 182
SWIDTH 406 0
DWIDTH 39 0
BBX 31 67 4 0
BITMAP
0000FFFE
000FFFFE
003FFFFE
00FFFFFE
01FFF1E0
07FFF1E0
0FFFF1E0
1FFFF1E0
1FFFF1E0
3FFFF1E0
3FFFF1E0
7FFFF1E0
7FFFF1E0
FFFFF1E0
FFFFF1E0
FFFFF1E0
FFFFF1E0
FFFFF1E0
FFFFF1E0
FFFFF1E0
FFFFF1E0
FFFFF1E0
FFFFF1E0
7FFFF1E0
7FFFF1E0
7FFFF1E0
3FFFF1E0
1FFFF1E0
1FFFF1E0
0FFFF1E0
07FFF1E0
01FFF1E0
00FFF1E0
003FF1E0
0007F1E0
0000F1E0
0000F1E0
0000F1E0
0000F1E0
0000F1E0
0000F1E0
0000F1E0
0000F1E0
0000F1E0
0000F1E0
0000F1E0
0000F1E0
0000F1E0
0000F1E0
0000F1E0
0000F1E0
0000F1E0
0000F1E0
0000F1E0
0000F1E0
0000F1E0
0000F1E0
0000F1E0
0000F1E0
0000F1E0
0000F1E0
0000F1E0
0000F1E0
0000F1E0
0000F1E0
0000F1E0
0000F1E0
ENDCHAR
STARTCHAR 00B7
ENCODING 183
SWIDTH 239 0
DWIDTH 23 0
BBX 7 8 8 26
BITMAP
38
7C
FE
FE
FE
FE
7C
10
ENDCHAR
STARTCHAR 00B8
ENCODING 184
SWIDTH 229 0
DWIDTH 22 0
BBX 9 14 6 -13
BITMAP
0C00
1E00
1E00
3C00
3E00
3F00
1F00
0780
0380
0380
0780
EF80
FF00
FE00
ENDCHAR
STARTCHAR 00B9
ENCODING 185
SWIDTH 83 0
DWIDTH 8 0
BBX 4 40 2 26
BITMAP
60
F0
F0
F0
F0
F0
F0
F0
F0
F0
F0
F0
F0
F0
F0
F0
F0
F0
F0
F0
F0
F0
F0
F0
F0
F0
F0
F0
F0
F0
F0
F0
F0
F0
F0
F0
F0
F0
F0
F0
ENDCHAR
STARTCHAR 00BA
ENCODING 186
SWIDTH 239 0
DWIDTH 23 0
BBX 11 42 6 25
BITMAP
1F00
7FC0
7FC0
E0E0
E0E0
E0E0
E0E0
E0E0
E0E0
E0E0
E0E0
E0E0
E0E0
E0E0
E0E0
E0E0
E0E0
E0E0
E0E0
E0E0
E0E0
E0E0
E0E0
E0E0
E0E0
E0E0
E0E0
E0E0
E0E0
E0E0
E0E0
E0E0
E0E0
E0E0
E0E0
E0E0
E0E0
E0E0
F1E0
7BC0
7FC0
1F00
ENDCHAR
STARTCHAR 00BB
ENCODING 187
SWIDTH 229 0
DWIDTH 22 0
BBX 16 34 4 3
BITMAP
E1C0
F1C0
F1E0
F9E0
79F0
78F0
7CF0
3CF8
3C78
1E78
1E3C
1F3C
0F3E
0F1E
079E
079F
078F
078F
078F
079E
0F1E
0F3E
1F3C
1E3C
1E7C
3E78
3CF8
7CF0
78F0
79F0
F9E0
F1E0
F1C0
E1C0
ENDCHAR
STARTCHAR 00BC
ENCODING 188
SWIDTH 500 0
DWIDTH 48 0
BBX 31 69 10 -1
BITMAP
00003800
60003800
F0003800
F0003800
F0007800
F0007800
F0007800
F0007000
F0007000
F000F000
F000F000
F000F000
F000E000
F000E000
F001E000
F001E000
F001C000
F001C000
F001C000
F003C000
F003C000
F0038000
F0038000
F0038000
F0078000
F0078000
F0070000
F0070000
F0070378
F00F0778
F00F0778
F00E0778
F00E0778
F00E0778
F01E0F78
F01E0F78
F01C0E78
F01C0E78
F01C0E78
F03C0E78
F03C1E78
00381E78
00381C78
00381C78
00781C78
00783C78
00703C78
00703C78
00703C78
00F03878
00F07878
00E07878
00E07FFE
00E07FFE
01E07FFE
01E03FFE
01C00078
01C00078
01C00078
03C00078
03C00078
03800078
03800078
03800078
07800078
07800078
07000078
07000030
06000000
ENDCHAR
STARTCHAR 00BD
ENCODING 189
SWIDTH 500 0
DWIDTH 48 0
BBX 33 69 9 -1
BITMAP
00000C0000
60001C0000
F0001C0000
F0001C0000
F0001C0000
F0003C0000
F0003C0000
F000380000
F000380000
F000380000
F000780000
F000780000
F000700000
F000700000
F000700000
F000F00000
F000F00000
F000E00000
F000E00000
F000E00000
F001E00000
F001E00000
F001C00000
F001C00000
F001C00000
F003C00000
F003C00000
F003803800
F00380FE00
F00381FF00
F00783CF80
F007838780
F007038780
F007038780
F007038780
F00F038780
F00F038780
F00E030780
F00E000780
F00E000780
F01E000780
001E000780
001C000780
001C000780
001C000780
003C000780
003C000780
0038000780
0038000780
0038000780
0078001F00
0078007F00
007001FC00
007001E000
007003E000
00F003C000
00F003C000
00E003C000
00E003C000
00E003C000
01E003C000
01E003C000
01C003C000
01C003C000
01C003FF80
03C003FF80
03C003FF80
038001FF80
0100000000
ENDCHAR
STARTCHAR 00BE
ENCODING 190
SWIDTH 500 0
DWIDTH 48 0
BBX 37 69 6 -1
BITMAP
1F8000C000
3FC001E000
7FE001E000
F9F001C000
F0F001C000
E0F001C000
E0F003C000
E0F003C000
E0F003C000
E0F0038000
E0F0038000
00F0078000
00F0078000
00F0078000
00F0070000
00F0070000
00F00F0000
00F00F0000
01F00E0000
7FE00E0000
FFE00E0000
FFE01E0000
7FF01E0000
01F01C0000
00F01C0000
00F01C0000
00F03C0000
00F03C0000
00F03800C0
00F0380DE0
00F0381DE0
00F0781DE0
E0F0781DE0
E0F0701DE0
E0F0701DE0
E0F0703DE0
E0F0F039E0
E0F0F039E0
F1F0E039E0
7FE0E039E0
7FE0E039E0
1F81E079E0
0001E071E0
0001C071E0
0001C071E0
0001C071E0
0003C0F1E0
0003C0F1E0
000380F1E0
000380E1E0
000380E1E0
000781E1E0
000781FFF8
000701FFF8
000701FFF8
000700FFF8
00070001E0
000F0001E0
000E0001E0
000E0001E0
000E0001E0
000E0001E0
001E0001E0
001C0001E0
001C0001E0
001C0001E0
003C0001E0
003C0000C0
0018000000
ENDCHAR
STARTCHAR 00BF
ENCODING 191
SWIDTH 229 0
DWIDTH 22 0
BBX 18 68 2 -1
BITMAP
01E000
03F000
03F000
03F000
03F000
01E000
000000
01E000
01E000
01E000
01E000
01E000
01E000
01E000
01E000
01E000
01E000
03E000
1FE000
3FE000
7FE000
7C0000
F80000
F00000
F00000
F00000
F00000
F00000
F00000
F00000
F00000
F00000
F00000
F00000
F00000
F00000
F00000
F00000
F00000
F00000
F00000
F00000
F00000
F00000
F00000
F00000
F00000
F00000
F00000
F00000
F00000
F00380
F003C0
F003C0
F003C0
F003C0
F003C0
F003C0
F003C0
F003C0
F003C0
F003C0
780780
780780
7F3F00
3FFF00
1FFE00
07F000
ENDCHAR
STARTCHAR 00C0
ENCODING 192
SWIDTH 260 0
DWIDTH 25 0
BBX 22 82 0 0
BITMAP
038000
03C000
03E000
01F800
00FC00
007E00
001F80
000FC0
0007E0
0003E0
0000C0
000000
000000
000000
003F80
01FFE0
03FFF0
07FFF8
0780F8
078078
0F003C
0F003C
0F003C
0F003C
0F003C
0F003C
0F003C
0F003C
0F003C
0F003C
0F003C
0F003C
0F003C
0F003C
0F003C
0F003C
0F003C
0F003C
0F003C
0F003C
0F003C
0F003C
0F003C
0F003C
0F003C
0F003C
0F003C
0F003C
0F003C
0F003C
0F003C
0F003C
FFFFFC
FFFFFC
FFFFFC
FFFFFC
0F003C
0F003C
0F003C
0F003C
0F003C
0F003C
0F003C
0F003C
0F003C
0F003C
0F003C
0F003C
0F003C
0F003C
0F003C
0F003C
0F003C
0F003C
0F003C
0F003C
0F003C
0F003C
0F003C
0F003C
0F003C
060018
ENDCHAR
STARTCHAR 00C1
ENCODING 193
SWIDTH 260 0
DWIDTH 25 0
BBX 22 83 0 0
BITMAP
000070
0000F0
0003F0
0007E0
000FC0
001F00
007E00
00FC00
01F000
01E000
00C000
000000
000000
000000
000000
003F80
01FFE0
03FFF0
07FFF8
0780F8
078078
0F003C
0F003C
0F003C
0F003C
0F003C
0F003C
0F003C
0F003C
0F003C
0F003C
0F003C
0F003C
0F003C
0F003C
0F003C
0F003C
0F003C
0F003C
0F003C
0F003C
0F003C
0F003C
0F003C
0F003C
0F003C
0F003C
0F003C
0F003C
0F003C
0F003C
0F003C
0F003C
FFFFFC
FFFFFC
FFFFFC
FFFFFC
0F003C
0F003C
0F003C
0F003C
0F003C
0F003C
0F003C
0F003C
0F003C
0F003C
0F003C
0F003C
0F003C
0F003C
0F003C
0F003C
0F003C
0F003C
0F003C
0F003C
0F003C
0F003C
0F003C
0F003C
0F003C
060018
ENDCHAR
STARTCHAR 00C2
ENCODING 194
SWIDTH 260 0
DWIDTH 25 0
BBX 22 79 0 1
BITMAP
003F00
00FF80
03FFE0
07F3F8
07C0F8
070030
000000
000000
000000
000000
000000
003F80
01FFE0
03FFF0
07FFF8
0780F8
078078
0F003C
0F003C
0F003C
0F003C
0F003C
0F003C
0F003C
0F003C
0F003C
0F003C
0F003C
0F003C
0F003C
0F003C
0F003C
0F003C
0F003C
0F003C
0F003C
0F003C
0F003C
0F003C
0F003C
0F003C
0F003C
0F003C
0F003C
0F003C
0F003C
0F003C
0F003C
0F003C
FFFFFC
FFFFFC
FFFFFC
FFFFFC
0F003C
0F003C
0F003C
0F003C
0F003C
0F003C
0F003C
0F003C
0F003C
0F003C
0F003C
0F003C
0F003C
0F003C
0F003C
0F003C
0F003C
0F003C
0F003C
0F003C
0F003C
0F003C
0F003C
0F003C
0F003C
060018
ENDCHAR
STARTCHAR 00C3
ENCODING 195
SWIDTH 260 0
DWIDTH 25 0
BBX 22 80 0 1
BITMAP
01F030
03FC70
03FEF8
03FFF0
038FF0
0387E0
000000
000000
000000
000000
000000
000000
003F80
01FFE0
03FFF0
07FFF8
0780F8
078078
0F003C
0F003C
0F003C
0F003C
0F003C
0F003C
0F003C
0F003C
0F003C
0F003C
0F003C
0F003C
0F003C
0F003C
0F003C
0F003C
0F003C
0F003C
0F003C
0F003C
0F003C
0F003C
0F003C
0F003C
0F003C
0F003C
0F003C
0F003C
0F003C
0F003C
0F003C
0F003C
FFFFFC
FFFFFC
FFFFFC
FFFFFC
0F003C
0F003C
0F003C
0F003C
0F003C
0F003C
0F003C
0F003C
0F003C
0F003C
0F003C
0F003C
0F003C
0F003C
0F003C
0F003C
0F003C
0F003C
0F003C
0F003C
0F003C
0F003C
0F003C
0F003C
0F003C
060018
ENDCHAR
STARTCHAR 00C4
ENCODING 196
SWIDTH 260 0
DWIDTH 25 0
BBX 22 81 0 0
BITMAP
00C070
01F0F8
03F1F8
03F1F8
03F1F8
03F1F8
01E0F0
000000
000000
000000
000000
000000
000000
003F80
01FFE0
03FFF0
07FFF8
0780F8
078078
0F003C
0F003C
0F003C
0F003C
0F003C
0F003C
0F003C
0F003C
0F003C
0F003C
0F003C
0F003C
0F003C
0F003C
0F003C
0F003C
0F003C
0F003C
0F003C
0F003C
0F003C
0F003C
0F003C
0F003C
0F003C
0F003C
0F003C
0F003C
0F003C
0F003C
0F003C
0F003C
FFFFFC
FFFFFC
FFFFFC
FFFFFC
0F003C
0F003C
0F003C
0F003C
0F003C
0F003C
0F003C
0F003C
0F003C
0F003C
0F003C
0F003C
0F003C
0F003C
0F003C
0F003C
0F003C
0F003C
0F003C
0F003C
0F003C
0F003C
0F003C
0F003C
0F003C
060018
ENDCHAR
STARTCHAR 00C5
ENCODING 197
SWIDTH 260 0
DWIDTH 25 0
BBX 22 84 0 1
BITMAP
003F80
00FFC0
00FFE0
01E0E0
01C0F0
01C0F0
01C0F0
01E0F0
01F1E0
00FFE0
007FC0
003F00
000000
000000
000000
000000
003F80
01FFE0
03FFF0
07FFF8
0780F8
078078
0F003C
0F003C
0F003C
0F003C
0F003C
0F003C
0F003C
0F003C
0F003C
0F003C
0F003C
0F003C
0F003C
0F003C
0F003C
0F003C
0F003C
0F003C
0F003C
0F003C
0F003C
0F003C
0F003C
0F003C
0F003C
0F003C
0F003C
0F003C
0F003C
0F003C
0F003C
0F003C
FFFFFC
FFFFFC
FFFFFC
FFFFFC
0F003C
0F003C
0F003C
0F003C
0F003C
0F003C
0F003C
0F003C
0F003C
0F003C
0F003C
0F003C
0F003C
0F003C
0F003C
0F003C
0F003C
0F003C
0F003C
0F003C
0F003C
0F003C
0F003C
0F003C
0F003C
060018
ENDCHAR
STARTCHAR 00C6
ENCODING 198
SWIDTH 385 0
DWIDTH 37 0
BBX 35 68 1 0
BITMAP
001F000000
00FFFFFFE0
01FFFFFFE0
03FFFFFFE0
07E1FFFFE0
07807C0000
0F807C0000
0F003C0000
0F003C0000
0F003C0000
0F003C0000
0F003C0000
0F003C0000
0F003C0000
0F003C0000
0F003C0000
0F003C0000
0F003C0000
0F003C0000
0F003C0000
0F003C0000
0F003C0000
0F003C0000
0F003C0000
0F003C0000
0F003C0000
0F003C0000
0F003C0000
0F003C0000
0F003C0000
0F003C0000
0F003C0000
0F003C0000
0F003C0000
0F003C0000
0F003C0000
0F003C0000
0F003C0000
FFFFFFFFE0
FFFFFFFFE0
FFFFFFFFE0
FFFFFFFFE0
0F003C0000
0F003C0000
0F003C0000
0F003C0000
0F003C0000
0F003C0000
0F003C0000
0F003C0000
0F003C0000
0F003C0000
0F003C0000
0F003C0000
0F003C0000
0F003C0000
0F003C0000
0F003C0000
0F003C0000
0F003C0000
0F003C0000
0F003C0000
0F003C0000
0F003C0000
0F003FFFE0
0F003FFFE0
0F003FFFE0
06001FFFE0
ENDCHAR
STARTCHAR 00C7
ENCODING 199
SWIDTH 229 0
DWIDTH 22 0
BBX 18 80 2 -13
BITMAP
07F000
1FFE00
3FFF00
7FFF80
7C0F80
F80780
F003C0
F003C0
F003C0
F003C0
F003C0
F003C0
F003C0
F003C0
F003C0
F003C0
F003C0
F00000
F00000
F00000
F00000
F00000
F00000
F00000
F00000
F00000
F00000
F00000
F00000
F00000
F00000
F00000
F00000
F00000
F00000
F00000
F00000
F00000
F00000
F00000
F00000
F00000
F00000
F00000
F00000
F00000
F00000
F00000
F00000
F00000
F00000
F00180
F003C0
F003C0
F003C0
F003C0
F003C0
F003C0
F003C0
F003C0
F003C0
F003C0
7007C0
7807C0
7C0F80
3FFF80
1FFF00
07FE00
01F800
03C000
03E000
03F000
007000
003800
003800
003800
007800
07F000
0FF000
07E000
ENDCHAR
STARTCHAR 00C8
ENCODING 200
SWIDTH 229 0
DWIDTH 22 0
BBX 21 82 0 1
BITMAP
038000
03E000
03F000
01F800
007E00
003F00
001F80
0007C0
0003E0
0001E0
000040
000000
000000
000000
000000
07FFF8
0FFFF8
0FFFF8
0FFFF0
0F0000
0F0000
0F0000
0F0000
0F0000
0F0000
0F0000
0F0000
0F0000
0F0000
0F0000
0F0000
0F0000
0F0000
0F0000
0F0000
0F0000
0F0000
0F0000
0F0000
0F0000
0F0000
0F0000
0F0000
0F0000
0F0000
0F0000
0F0000
0F0000
0F0000
0F0000
0F0000
0F0000
FFFFF0
FFFFF8
FFFFF8
FFFFF8
0F0000
0F0000
0F0000
0F0000
0F0000
0F0000
0F0000
0F0000
0F0000
0F0000
0F0000
0F0000
0F0000
0F0000
0F0000
0F0000
0F0000
0F0000
0F0000
0F0000
0F0000
0F0000
0FFFF8
0FFFF8
0FFFF8
07FFF0
ENDCHAR
STARTCHAR 00C9
ENCODING 201
SWIDTH 229 0
DWIDTH 22 0
BBX 21 83 0 0
BITMAP
000060
0001E0
0003E0
0007C0
001F80
003F00
007E00
00F800
01F000
03E000
018000
000000
000000
000000
000000
000000
07FFF8
0FFFF8
0FFFF8
0FFFF0
0F0000
0F0000
0F0000
0F0000
0F0000
0F0000
0F0000
0F0000
0F0000
0F0000
0F0000
0F0000
0F0000
0F0000
0F0000
0F0000
0F0000
0F0000
0F0000
0F0000
0F0000
0F0000
0F0000
0F0000
0F0000
0F0000
0F0000
0F0000
0F0000
0F0000
0F0000
0F0000
0F0000
FFFFF0
FFFFF8
FFFFF8
FFFFF8
0F0000
0F0000
0F0000
0F0000
0F0000
0F0000
0F0000
0F0000
0F0000
0F0000
0F0000
0F0000
0F0000
0F0000
0F0000
0F0000
0F0000
0F0000
0F0000
0F0000
0F0000
0F0000
0FFFF8
0FFFF8
0FFFF8
07FFF0
ENDCHAR
STARTCHAR 00CA
ENCODING 202
SWIDTH 229 0
DWIDTH 22 0
BBX 21 79 0 1
BITMAP
007C00
00FF00
03FFC0
0FE7F0
0F81F0
0E0070
000000
000000
000000
000000
000000
000000
07FFF8
0FFFF8
0FFFF8
0FFFF0
0F0000
0F0000
0F0000
0F0000
0F0000
0F0000
0F0000
0F0000
0F0000
0F0000
0F0000
0F0000
0F0000
0F0000
0F0000
0F0000
0F0000
0F0000
0F0000
0F0000
0F0000
0F0000
0F0000
0F0000
0F0000
0F0000
0F0000
0F0000
0F0000
0F0000
0F0000
0F0000
0F0000
FFFFF0
FFFFF8
FFFFF8
FFFFF8
0F0000
0F0000
0F0000
0F0000
0F0000
0F0000
0F0000
0F0000
0F0000
0F0000
0F0000
0F0000
0F0000
0F0000
0F0000
0F0000
0F0000
0F0000
0F0000
0F0000
0F0000
0F0000
0FFFF8
0FFFF8
0FFFF8
07FFF0
ENDCHAR
STARTCHAR 00CB
ENCODING 203
SWIDTH 229 0
DWIDTH 22 0
BBX 21 81 0 1
BITMAP
03C1E0
07E3F0
07E3F0
07E3F0
07E3F0
03E1F0
018040
000000
000000
000000
000000
000000
000000
000000
07FFF8
0FFFF8
0FFFF8
0FFFF0
0F0000
0F0000
0F0000
0F0000
0F0000
0F0000
0F0000
0F0000
0F0000
0F0000
0F0000
0F0000
0F0000
0F0000
0F0000
0F0000
0F0000
0F0000
0F0000
0F0000
0F0000
0F0000
0F0000
0F0000
0F0000
0F0000
0F0000
0F0000
0F0000
0F0000
0F0000
0F0000
0F0000
FFFFF0
FFFFF8
FFFFF8
FFFFF8
0F0000
0F0000
0F0000
0F0000
0F0000
0F0000
0F0000
0F0000
0F0000
0F0000
0F0000
0F0000
0F0000
0F0000
0F0000
0F0000
0F0000
0F0000
0F0000
0F0000
0F0000
0F0000
0FFFF8
0FFFF8
0FFFF8
07FFF0
ENDCHAR
STARTCHAR 00CC
ENCODING 204
SWIDTH 93 0
DWIDTH 9 0
BBX 13 82 -7 1
BITMAP
E000
F000
FC00
7E00
3F00
0FC0
07E0
03F0
00F8
0078
0000
0000
0000
0000
0000
0030
0078
0078
0078
0078
0078
0078
0078
0078
0078
0078
0078
0078
0078
0078
0078
0078
0078
0078
0078
0078
0078
0078
0078
0078
0078
0078
0078
0078
0078
0078
0078
0078
0078
0078
0078
0078
0078
0078
0078
0078
0078
0078
0078
0078
0078
0078
0078
0078
0078
0078
0078
0078
0078
0078
0078
0078
0078
0078
0078
0078
0078
0078
0078
0078
0078
0030
ENDCHAR
STARTCHAR 00CD
ENCODING 205
SWIDTH 93 0
DWIDTH 9 0
BBX 13 83 1 0
BITMAP
0010
0038
00F8
01F8
03F0
0FC0
1F80
3F00
7C00
F800
7000
0000
0000
0000
0000
0000
3000
7800
7800
7800
7800
7800
7800
7800
7800
7800
7800
7800
7800
7800
7800
7800
7800
7800
7800
7800
7800
7800
7800
7800
7800
7800
7800
7800
7800
7800
7800
7800
7800
7800
7800
7800
7800
7800
7800
7800
7800
7800
7800
7800
7800
7800
7800
7800
7800
7800
7800
7800
7800
7800
7800
7800
7800
7800
7800
7800
7800
7800
7800
7800
7800
7800
3000
ENDCHAR
STARTCHAR 00CE
ENCODING 206
SWIDTH 93 0
DWIDTH 9 0
BBX 16 80 -5 0
BITMAP
03C0
0FF0
1FFC
7FFF
FC3F
F00F
0000
0000
0000
0000
0000
0000
0000
00C0
01E0
01E0
01E0
01E0
01E0
01E0
01E0
01E0
01E0
01E0
01E0
01E0
01E0
01E0
01E0
01E0
01E0
01E0
01E0
01E0
01E0
01E0
01E0
01E0
01E0
01E0
01E0
01E0
01E0
01E0
01E0
01E0
01E0
01E0
01E0
01E0
01E0
01E0
01E0
01E0
01E0
01E0
01E0
01E0
01E0
01E0
01E0
01E0
01E0
01E0
01E0
01E0
01E0
01E0
01E0
01E0
01E0
01E0
01E0
01E0
01E0
01E0
01E0
01E0
01E0
00C0
ENDCHAR
STARTCHAR 00CF
ENCODING 207
SWIDTH 93 0
DWIDTH 9 0
BBX 15 80 -3 0
BITMAP
0010
F87C
F87C
FC7E
FC7E
F87C
F87C
0000
0000
0000
0000
0000
0000
0300
0780
0780
0780
0780
0780
0780
0780
0780
0780
0780
0780
0780
0780
0780
0780
0780
0780
0780
0780
0780
0780
0780
0780
0780
0780
0780
0780
0780
0780
0780
0780
0780
0780
0780
0780
0780
0780
0780
0780
0780
0780
0780
0780
0780
0780
0780
0780
0780
0780
0780
0780
0780
0780
0780
0780
0780
0780
0780
0780
0780
0780
0780
0780
0780
0780
0300
ENDCHAR
STARTCHAR 00D0
ENCODING 208
SWIDTH 239 0
DWIDTH 23 0
BBX 22 67 0 0
BITMAP
0FFF80
0FFFE0
0FFFF0
0FFFF8
0F00F8
0F0078
0F003C
0F003C
0F003C
0F003C
0F003C
0F003C
0F003C
0F003C
0F003C
0F003C
0F003C
0F003C
0F003C
0F003C
0F003C
0F003C
0F003C
0F003C
0F003C
0F003C
0F003C
0F003C
0F003C
0F003C
0F003C
0F003C
0F003C
0F003C
0F003C
0F003C
0F003C
FFFC3C
FFFE3C
FFFE3C
FFFC3C
0F003C
0F003C
0F003C
0F003C
0F003C
0F003C
0F003C
0F003C
0F003C
0F003C
0F003C
0F003C
0F003C
0F003C
0F003C
0F003C
0F003C
0F003C
0F003C
0F007C
0F0078
0F00F8
0FFFF8
0FFFF0
0FFFE0
0FFF80
ENDCHAR
STARTCHAR 00D1
ENCODING 209
SWIDTH 239 0
DWIDTH 23 0
BBX 19 80 2 0
BITMAP
070000
1FC380
3FE780
3FFF80
3CFF00
387F00
101C00
000000
000000
000000
000000
000000
01F800
67FF00
FFFF80
FFFF80
FE07C0
FC03C0
F803E0
F001E0
F001E0
F001E0
F001E0
F001E0
F001E0
F001E0
F001E0
F001E0
F001E0
F001E0
F001E0
F001E0
F001E0
F001E0
F001E0
F001E0
F001E0
F001E0
F001E0
F001E0
F001E0
F001E0
F001E0
F001E0
F001E0
F001E0
F001E0
F001E0
F001E0
F001E0
F001E0
F001E0
F001E0
F001E0
F001E0
F001E0
F001E0
F001E0
F001E0
F001E0
F001E0
F001E0
F001E0
F001E0
F001E0
F001E0
F001E0
F001E0
F001E0
F001E0
F001E0
F001E0
F001E0
F001E0
F001E0
F001E0
F001E0
F001E0
F001E0
6000E0
ENDCHAR
STARTCHAR 00D2
ENCODING 210
SWIDTH 239 0
DWIDTH 23 0
BBX 19 83 2 0
BITMAP
3C0000
3E0000
1F8000
0FC000
07E000
01F000
00FC00
007E00
003E00
000E00
000000
000000
000000
000000
03F800
1FFE00
3FFF00
7FFF80
7C07C0
7803C0
F003E0
F001E0
F001E0
F001E0
F001E0
F001E0
F001E0
F001E0
F001E0
F001E0
F001E0
F001E0
F001E0
F001E0
F001E0
F001E0
F001E0
F001E0
F001E0
F001E0
F001E0
F001E0
F001E0
F001E0
F001E0
F001E0
F001E0
F001E0
F001E0
F001E0
F001E0
F001E0
F001E0
F001E0
F001E0
F001E0
F001E0
F001E0
F001E0
F001E0
F001E0
F001E0
F001E0
F001E0
F001E0
F001E0
F001E0
F001E0
F001E0
F001E0
F001E0
F001E0
F001E0
F001E0
F001E0
F001E0
F803E0
7803C0
7E0FC0
3FFF80
3FFF80
1FFE00
03F800
ENDCHAR
STARTCHAR 00D3
ENCODING 211
SWIDTH 239 0
DWIDTH 23 0
BBX 19 83 2 -1
BITMAP
000700
000F00
003F00
007E00
00FC00
01F000
07E000
0FC000
1F0000
1E0000
0C0000
000000
000000
000000
03F800
1FFE00
3FFF00
7FFF80
7C07C0
7803C0
F003E0
F001E0
F001E0
F001E0
F001E0
F001E0
F001E0
F001E0
F001E0
F001E0
F001E0
F001E0
F001E0
F001E0
F001E0
F001E0
F001E0
F001E0
F001E0
F001E0
F001E0
F001E0
F001E0
F001E0
F001E0
F001E0
F001E0
F001E0
F001E0
F001E0
F001E0
F001E0
F001E0
F001E0
F001E0
F001E0
F001E0
F001E0
F001E0
F001E0
F001E0
F001E0
F001E0
F001E0
F001E0
F001E0
F001E0
F001E0
F001E0
F001E0
F001E0
F001E0
F001E0
F001E0
F001E0
F001E0
F803E0
7803C0
7E0FC0
3FFF80
3FFF80
1FFE00
03F800
ENDCHAR
STARTCHAR 00D4
ENCODING 212
SWIDTH 239 0
DWIDTH 23 0
BBX 19 81 2 -1
BITMAP
01C000
07F000
1FFC00
3FFF00
7E3F80
780F80
200100
000000
000000
000000
000000
000000
03F800
1FFE00
3FFF00
7FFF80
7C07C0
7803C0
F003E0
F001E0
F001E0
F001E0
F001E0
F001E0
F001E0
F001E0
F001E0
F001E0
F001E0
F001E0
F001E0
F001E0
F001E0
F001E0
F001E0
F001E0
F001E0
F001E0
F001E0
F001E0
F001E0
F001E0
F001E0
F001E0
F001E0
F001E0
F001E0
F001E0
F001E0
F001E0
F001E0
F001E0
F001E0
F001E0
F001E0
F001E0
F001E0
F001E0
F001E0
F001E0
F001E0
F001E0
F001E0
F001E0
F001E0
F001E0
F001E0
F001E0
F001E0
F001E0
F001E0
F001E0
F001E0
F001E0
F803E0
7803C0
7E0FC0
3FFF80
3FFF80
1FFE00
03F800
ENDCHAR
STARTCHAR 00D5
ENCODING 213
SWIDTH 239 0
DWIDTH 23 0
BBX 19 81 2 -1
BITMAP
070000
1FC380
1FE780
3FFF80
3CFF80
387F00
101E00
000000
000000
000000
000000
000000
03F800
1FFE00
3FFF00
7FFF80
7C07C0
7803C0
F003E0
F001E0
F001E0
F001E0
F001E0
F001E0
F001E0
F001E0
F001E0
F001E0
F001E0
F001E0
F001E0
F001E0
F001E0
F001E0
F001E0
F001E0
F001E0
F001E0
F001E0
F001E0
F001E0
F001E0
F001E0
F001E0
F001E0
F001E0
F001E0
F001E0
F001E0
F001E0
F001E0
F001E0
F001E0
F001E0
F001E0
F001E0
F001E0
F001E0
F001E0
F001E0
F001E0
F001E0
F001E0
F001E0
F001E0
F001E0
F001E0
F001E0
F001E0
F001E0
F001E0
F001E0
F001E0
F001E0
F803E0
7803C0
7E0FC0
3FFF80
3FFF80
1FFE00
03F800
ENDCHAR
STARTCHAR 00D6
ENCODING 214
SWIDTH 239 0
DWIDTH 23 0
BBX 19 81 2 0
BITMAP
1E0F00
3F1F80
3F1F80
3F1F80
3F1F80
1E0F00
000000
000000
000000
000000
000000
000000
03F800
1FFE00
3FFF00
7FFF80
7C07C0
7803C0
F003E0
F001E0
F001E0
F001E0
F001E0
F001E0
F001E0
F001E0
F001E0
F001E0
F001E0
F001E0
F001E0
F001E0
F001E0
F001E0
F001E0
F001E0
F001E0
F001E0
F001E0
F001E0
F001E0
F001E0
F001E0
F001E0
F001E0
F001E0
F001E0
F001E0
F001E0
F001E0
F001E0
F001E0
F001E0
F001E0
F001E0
F001E0
F001E0
F001E0
F001E0
F001E0
F001E0
F001E0
F001E0
F001E0
F001E0
F001E0
F001E0
F001E0
F001E0
F001E0
F001E0
F001E0
F001E0
F001E0
F803E0
7803C0
7E0FC0
3FFF80
3FFF80
1FFE00
03F800
ENDCHAR
STARTCHAR 00D7
ENCODING 215
SWIDTH 510 0
DWIDTH 49 0
BBX 41 41 4 1
BITMAP
400000000000
F00000000780
F80000000F80
FC0000001F80
7E0000003F00
3F0000007E00
1F800000FC00
0FC00001F800
07E00003F000
03F00007E000
01F8000FC000
00FC001F8000
007E003F0000
003F007E0000
001F80FC0000
000FC1F80000
0007E3F00000
0003F7E00000
0001FFC00000
0000FF800000
00007F000000
00007F000000
0000FF800000
0001FFC00000
0003F7E00000
0007E3F00000
000FC1F80000
001F80FC0000
003F007E0000
007E003F0000
00FC001F8000
01F8000FC000
03F00007E000
07E00003F000
0FC00001F800
1F800000FC00
3F0000007E00
7E0000003F00
FC0000001F80
F80000000F80
F00000000780
ENDCHAR
STARTCHAR 00D8
ENCODING 216
SWIDTH 239 0
DWIDTH 23 0
BBX 19 69 2 -1
BITMAP
03FDC0
1FFFC0
3FFFC0
7FFFC0
7C07C0
7803C0
F007E0
F007E0
F007E0
F007E0
F00FE0
F00FE0
F00FE0
F00FE0
F00FE0
F01FE0
F01FE0
F01FE0
F01FE0
F01FE0
F03FE0
F03DE0
F03DE0
F03DE0
F03DE0
F07DE0
F079E0
F079E0
F079E0
F079E0
F0F1E0
F0F1E0
F0F1E0
F0F1E0
F0F1E0
F1E1E0
F1E1E0
F1E1E0
F1E1E0
F1E1E0
F3C1E0
F3C1E0
F3C1E0
F3C1E0
F781E0
F781E0
F781E0
F781E0
F781E0
FF01E0
FF01E0
FF01E0
FF01E0
FF01E0
FE01E0
FE01E0
FE01E0
FE01E0
FC01E0
FC01E0
FC01E0
FC01E0
FC01E0
7803C0
7807C0
7F1F80
7FFF80
7FFE00
77F800
ENDCHAR
STARTCHAR 00D9
ENCODING 217
SWIDTH 229 0
DWIDTH 22 0
BBX 18 83 2 0
BITMAP
3C0000
3E0000
3F0000
0FC000
07E000
03F000
00FC00
007E00
003E00
001E00
000000
000000
000000
000000
000000
600180
F003C0
F003C0
F003C0
F003C0
F003C0
F003C0
F003C0
F003C0
F003C0
F003C0
F003C0
F003C0
F003C0
F003C0
F003C0
F003C0
F003C0
F003C0
F003C0
F003C0
F003C0
F003C0
F003C0
F003C0
F003C0
F003C0
F003C0
F003C0
F003C0
F003C0
F003C0
F003C0
F003C0
F003C0
F003C0
F003C0
F003C0
F003C0
F003C0
F003C0
F003C0
F003C0
F003C0
F003C0
F003C0
F003C0
F003C0
F003C0
F003C0
F003C0
F003C0
F003C0
F003C0
F003C0
F003C0
F003C0
F003C0
F003C0
F003C0
F003C0
F007C0
780780
7C0F80
7FFF80
3FFF00
1FFE00
03F800
ENDCHAR
STARTCHAR 00DA
ENCODING 218
SWIDTH 229 0
DWIDTH 22 0
BBX 18 83 2 0
BITMAP
000F00
001F00
003E00
00FC00
01F800
03E000
0FC000
1F8000
1E0000
1C0000
080000
000000
000000
000000
000000
600180
F003C0
F003C0
F003C0
F003C0
F003C0
F003C0
F003C0
F003C0
F003C0
F003C0
F003C0
F003C0
F003C0
F003C0
F003C0
F003C0
F003C0
F003C0
F003C0
F003C0
F003C0
F003C0
F003C0
F003C0
F003C0
F003C0
F003C0
F003C0
F003C0
F003C0
F003C0
F003C0
F003C0
F003C0
F003C0
F003C0
F003C0
F003C0
F003C0
F003C0
F003C0
F003C0
F003C0
F003C0
F003C0
F003C0
F003C0
F003C0
F003C0
F003C0
F003C0
F003C0
F003C0
F003C0
F003C0
F003C0
F003C0
F003C0
F003C0
F003C0
F007C0
780780
7C0F80
7FFF80
3FFF00
1FFE00
03F800
ENDCHAR
STARTCHAR 00DB
ENCODING 219
SWIDTH 229 0
DWIDTH 22 0
BBX 18 81 2 0
BITMAP
07E000
0FF800
3FFC00
7E7F00
F81F00
E00700
000000
000000
000000
000000
000000
000000
000000
600180
F003C0
F003C0
F003C0
F003C0
F003C0
F003C0
F003C0
F003C0
F003C0
F003C0
F003C0
F003C0
F003C0
F003C0
F003C0
F003C0
F003C0
F003C0
F003C0
F003C0
F003C0
F003C0
F003C0
F003C0
F003C0
F003C0
F003C0
F003C0
F003C0
F003C0
F003C0
F003C0
F003C0
F003C0
F003C0
F003C0
F003C0
F003C0
F003C0
F003C0
F003C0
F003C0
F003C0
F003C0
F003C0
F003C0
F003C0
F003C0
F003C0
F003C0
F003C0
F003C0
F003C0
F003C0
F003C0
F003C0
F003C0
F003C0
F003C0
F003C0
F007C0
780780
7C0F80
7FFF80
3FFF00
1FFE00
03F800
ENDCHAR
STARTCHAR 00DC
ENCODING 220
SWIDTH 229 0
DWIDTH 22 0
BBX 18 82 2 0
BITMAP
1C1E00
3E1F00
7E3F00
7E3F00
7E3F00
3E1F00
1C0E00
000000
000000
000000
000000
000000
000000
000000
600180
F003C0
F003C0
F003C0
F003C0
F003C0
F003C0
F003C0
F003C0
F003C0
F003C0
F003C0
F003C0
F003C0
F003C0
F003C0
F003C0
F003C0
F003C0
F003C0
F003C0
F003C0
F003C0
F003C0
F003C0
F003C0
F003C0
F003C0
F003C0
F003C0
F003C0
F003C0
F003C0
F003C0
F003C0
F003C0
F003C0
F003C0
F003C0
F003C0
F003C0
F003C0
F003C0
F003C0
F003C0
F003C0
F003C0
F003C0
F003C0
F003C0
F003C0
F003C0
F003C0
F003C0
F003C0
F003C0
F003C0
F003C0
F003C0
F003C0
F003C0
F007C0
780780
7C0F80
7FFF80
3FFF00
1FFE00
03F800
ENDCHAR
STARTCHAR 00DD
ENCODING 221
SWIDTH 229 0
DWIDTH 22 0
BBX 18 84 2 0
BITMAP
000F00
001F00
003E00
00FC00
01F800
03E000
0FC000
1F8000
1E0000
1C0000
000000
000000
000000
000000
000000
000000
600180
F003C0
F003C0
F003C0
F003C0
F003C0
F003C0
F003C0
F003C0
F003C0
F003C0
F003C0
F003C0
F003C0
F003C0
F003C0
F003C0
F003C0
F003C0
F003C0
F003C0
F003C0
F003C0
F003C0
F003C0
F003C0
F003C0
F003C0
F003C0
F003C0
F003C0
F003C0
F003C0
F003C0
F003C0
7807C0
7807C0
7FFFC0
3FFFC0
1FFFC0
07F3C0
0003C0
0003C0
0003C0
0003C0
0003C0
0003C0
0003C0
0003C0
0003C0
0003C0
F003C0
F003C0
F003C0
F003C0
F003C0
F003C0
F003C0
F003C0
F003C0
F003C0
F003C0
780780
7C0F80
7FFF00
3FFF00
1FFE00
07F000
ENDCHAR
STARTCHAR 00DE
ENCODING 222
SWIDTH 239 0
DWIDTH 23 0
BBX 22 67 0 0
BITMAP
060000
0F0000
0F0000
0F0000
0F0000
0F0000
0F0000
0F0000
0F0000
0F0000
0F0000
0F0000
0F0000
0F0000
0FFF80
0FFFE0
0FFFF0
0FFFF8
0F00F8
0F0078
0F007C
0F003C
0F003C
0F003C
0F003C
0F003C
0F003C
0F003C
0F003C
0F003C
0F003C
0F003C
0F003C
0F003C
0F003C
0F003C
0F003C
0F003C
0F003C
0F003C
0F003C
0F003C
0F003C
0F003C
0F003C
0F003C
0F003C
0F003C
0F007C
0F0078
0F00F8
FFFFF8
FFFFF0
FFFFE0
3FFF00
0F0000
0F0000
0F0000
0F0000
0F0000
0F0000
0F0000
0F0000
0F0000
0F0000
0F0000
0E0000
ENDCHAR
STARTCHAR 00DF
ENCODING 223
SWIDTH 250 0
DWIDTH 24 0
BBX 18 67 4 0
BITMAP
FFF000
FFFC00
FFFF00
FFFF00
F00F80
F00780
F007C0
F003C0
F003C0
F003C0
F003C0
F003C0
F003C0
F003C0
F003C0
F003C0
F003C0
F003C0
F003C0
F003C0
F003C0
F003C0
F003C0
F003C0
F007C0
F00780
F03F80
F1FF00
F1FE00
F1FF00
F01F80
F00780
F00780
F003C0
F003C0
F003C0
F003C0
F003C0
F003C0
F003C0
F003C0
F003C0
F003C0
F003C0
F003C0
F003C0
F003C0
F003C0
F003C0
F003C0
F003C0
F003C0
F003C0
F003C0
F003C0
F003C0
F003C0
F003C0
F003C0
F003C0
F203C0
F703C0
F703C0
F707C0
F7FF80
F7FF00
F1FE00
ENDCHAR
STARTCHAR 00E0
ENCODING 224
SWIDTH 260 0
DWIDTH 25 0
BBX 22 83 0 0
BITMAP
008000
01C000
01F000
01F800
00FC00
003F00
001F80
000FC0
0003E0
0001F0
0000E0
000000
000000
000000
000000
003F80
01FFE0
03FFF0
07FFF8
0780F8
078078
0F003C
0F003C
0F003C
0F003C
0F003C
0F003C
0F003C
0F003C
0F003C
0F003C
0F003C
0F003C
0F003C
0F003C
0F003C
0F003C
0F003C
0F003C
0F003C
0F003C
0F003C
0F003C
0F003C
0F003C
0F003C
0F003C
0F003C
0F003C
0F003C
0F003C
0F003C
0F003C
FFFFFC
FFFFFC
FFFFFC
FFFFFC
0F003C
0F003C
0F003C
0F003C
0F003C
0F003C
0F003C
0F003C
0F003C
0F003C
0F003C
0F003C
0F003C
0F003C
0F003C
0F003C
0F003C
0F003C
0F003C
0F003C
0F003C
0F003C
0F003C
0F003C
0F003C
060018
ENDCHAR
STARTCHAR 00E1
ENCODING 225
SWIDTH 260 0
DWIDTH 25 0
BBX 22 83 0 0
BITMAP
000040
0001E0
0003E0
0007C0
001F80
003F00
007C00
01F800
03F000
03C000
038000
000000
000000
000000
000000
003F80
01FFE0
03FFF0
07FFF8
0780F8
078078
0F003C
0F003C
0F003C
0F003C
0F003C
0F003C
0F003C
0F003C
0F003C
0F003C
0F003C
0F003C
0F003C
0F003C
0F003C
0F003C
0F003C
0F003C
0F003C
0F003C
0F003C
0F003C
0F003C
0F003C
0F003C
0F003C
0F003C
0F003C
0F003C
0F003C
0F003C
0F003C
FFFFFC
FFFFFC
FFFFFC
FFFFFC
0F003C
0F003C
0F003C
0F003C
0F003C
0F003C
0F003C
0F003C
0F003C
0F003C
0F003C
0F003C
0F003C
0F003C
0F003C
0F003C
0F003C
0F003C
0F003C
0F003C
0F003C
0F003C
0F003C
0F003C
0F003C
060018
ENDCHAR
STARTCHAR 00E2
ENCODING 226
SWIDTH 260 0
DWIDTH 25 0
BBX 22 79 0 1
BITMAP
003F00
00FF80
01FFE0
07F3F8
07C0F8
070038
000000
000000
000000
000000
000000
003F80
01FFE0
03FFF0
07FFF8
0780F8
078078
0F003C
0F003C
0F003C
0F003C
0F003C
0F003C
0F003C
0F003C
0F003C
0F003C
0F003C
0F003C
0F003C
0F003C
0F003C
0F003C
0F003C
0F003C
0F003C
0F003C
0F003C
0F003C
0F003C
0F003C
0F003C
0F003C
0F003C
0F003C
0F003C
0F003C
0F003C
0F003C
FFFFFC
FFFFFC
FFFFFC
FFFFFC
0F003C
0F003C
0F003C
0F003C
0F003C
0F003C
0F003C
0F003C
0F003C
0F003C
0F003C
0F003C
0F003C
0F003C
0F003C
0F003C
0F003C
0F003C
0F003C
0F003C
0F003C
0F003C
0F003C
0F003C
0F003C
060018
ENDCHAR
STARTCHAR 00E3
ENCODING 227
SWIDTH 260 0
DWIDTH 25 0
BBX 22 79 0 1
BITMAP
00F8C0
01FDC0
01FFC0
01CFC0
018780
000000
000000
000000
000000
000000
000000
003F80
01FFE0
03FFF0
07FFF8
0780F8
078078
0F003C
0F003C
0F003C
0F003C
0F003C
0F003C
0F003C
0F003C
0F003C
0F003C
0F003C
0F003C
0F003C
0F003C
0F003C
0F003C
0F003C
0F003C
0F003C
0F003C
0F003C
0F003C
0F003C
0F003C
0F003C
0F003C
0F003C
0F003C
0F003C
0F003C
0F003C
0F003C
FFFFFC
FFFFFC
FFFFFC
FFFFFC
0F003C
0F003C
0F003C
0F003C
0F003C
0F003C
0F003C
0F003C
0F003C
0F003C
0F003C
0F003C
0F003C
0F003C
0F003C
0F003C
0F003C
0F003C
0F003C
0F003C
0F003C
0F003C
0F003C
0F003C
0F003C
060018
ENDCHAR
STARTCHAR 00E4
ENCODING 228
SWIDTH 260 0
DWIDTH 25 0
BBX 22 79 0 1
BITMAP
01E0F0
01F1F8
03F1F8
03F1F8
03F1F8
01F0F8
00E070
000000
000000
000000
000000
003F80
01FFE0
03FFF0
07FFF8
0780F8
078078
0F003C
0F003C
0F003C
0F003C
0F003C
0F003C
0F003C
0F003C
0F003C
0F003C
0F003C
0F003C
0F003C
0F003C
0F003C
0F003C
0F003C
0F003C
0F003C
0F003C
0F003C
0F003C
0F003C
0F003C
0F003C
0F003C
0F003C
0F003C
0F003C
0F003C
0F003C
0F003C
FFFFFC
FFFFFC
FFFFFC
FFFFFC
0F003C
0F003C
0F003C
0F003C
0F003C
0F003C
0F003C
0F003C
0F003C
0F003C
0F003C
0F003C
0F003C
0F003C
0F003C
0F003C
0F003C
0F003C
0F003C
0F003C
0F003C
0F003C
0F003C
0F003C
0F003C
060018
ENDCHAR
STARTCHAR 00E5
ENCODING 229
SWIDTH 260 0
DWIDTH 25 0
BBX 22 82 0 0
BITMAP
001E00
007F80
00FFC0
00E1C0
00E0C0
00E0E0
00E1C0
00F3C0
007F80
003F00
000000
000000
000000
000000
003F80
01FFE0
03FFF0
07FFF8
0780F8
078078
0F003C
0F003C
0F003C
0F003C
0F003C
0F003C
0F003C
0F003C
0F003C
0F003C
0F003C
0F003C
0F003C
0F003C
0F003C
0F003C
0F003C
0F003C
0F003C
0F003C
0F003C
0F003C
0F003C
0F003C
0F003C
0F003C
0F003C
0F003C
0F003C
0F003C
0F003C
0F003C
FFFFFC
FFFFFC
FFFFFC
FFFFFC
0F003C
0F003C
0F003C
0F003C
0F003C
0F003C
0F003C
0F003C
0F003C
0F003C
0F003C
0F003C
0F003C
0F003C
0F003C
0F003C
0F003C
0F003C
0F003C
0F003C
0F003C
0F003C
0F003C
0F003C
0F003C
060018
ENDCHAR
STARTCHAR 00E6
ENCODING 230
SWIDTH 385 0
DWIDTH 37 0
BBX 35 68 1 0
BITMAP
001F000000
00FFFFFFE0
01FFFFFFE0
03FFFFFFE0
07E1FFFFE0
07807C0000
0F807C0000
0F003C0000
0F003C0000
0F003C0000
0F003C0000
0F003C0000
0F003C0000
0F003C0000
0F003C0000
0F003C0000
0F003C0000
0F003C0000
0F003C0000
0F003C0000
0F003C0000
0F003C0000
0F003C0000
0F003C0000
0F003C0000
0F003C0000
0F003C0000
0F003C0000
0F003C0000
0F003C0000
0F003C0000
0F003C0000
0F003C0000
0F003C0000
0F003C0000
0F003C0000
0F003C0000
0F003C0000
FFFFFFFFE0
FFFFFFFFE0
FFFFFFFFE0
FFFFFFFFE0
0F003C0000
0F003C0000
0F003C0000
0F003C0000
0F003C0000
0F003C0000
0F003C0000
0F003C0000
0F003C0000
0F003C0000
0F003C0000
0F003C0000
0F003C0000
0F003C0000
0F003C0000
0F003C0000
0F003C0000
0F003C0000
0F003C0000
0F003C0000
0F003C0000
0F003C0000
0F003FFFE0
0F003FFFE0
0F003FFFE0
06001FFFE0
ENDCHAR
STARTCHAR 00E7
ENCODING 231
SWIDTH 229 0
DWIDTH 22 0
BBX 18 80 2 -13
BITMAP
07F000
1FFE00
3FFF00
7FFF80
7C0F80
F80780
F003C0
F003C0
F003C0
F003C0
F003C0
F003C0
F003C0
F003C0
F003C0
F003C0
F003C0
F00000
F00000
F00000
F00000
F00000
F00000
F00000
F00000
F00000
F00000
F00000
F00000
F00000
F00000
F00000
F00000
F00000
F00000
F00000
F00000
F00000
F00000
F00000
F00000
F00000
F00000
F00000
F00000
F00000
F00000
F00000
F00000
F00000
F00000
F00180
F003C0
F003C0
F003C0
F003C0
F003C0
F003C0
F003C0
F003C0
F003C0
F003C0
7007C0
7807C0
7C0F80
3FFF80
1FFF00
07FE00
01F800
03C000
03E000
03F000
007000
003800
003800
003800
007800
07F000
0FF000
07E000
ENDCHAR
STARTCHAR 00E8
ENCODING 232
SWIDTH 229 0
DWIDTH 22 0
BBX 21 82 0 0
BITMAP
010000
038000
03E000
03F000
01F800
007E00
003F00
001F80
0007C0
0003C0
0001C0
000000
000000
000000
000000
07FFF8
0FFFF8
0FFFF8
0FFFF0
0F0000
0F0000
0F0000
0F0000
0F0000
0F0000
0F0000
0F0000
0F0000
0F0000
0F0000
0F0000
0F0000
0F0000
0F0000
0F0000
0F0000
0F0000
0F0000
0F0000
0F0000
0F0000
0F0000
0F0000
0F0000
0F0000
0F0000
0F0000
0F0000
0F0000
0F0000
0F0000
0F0000
FFFFF0
FFFFF8
FFFFF8
FFFFF8
0F0000
0F0000
0F0000
0F0000
0F0000
0F0000
0F0000
0F0000
0F0000
0F0000
0F0000
0F0000
0F0000
0F0000
0F0000
0F0000
0F0000
0F0000
0F0000
0F0000
0F0000
0F0000
0FFFF8
0FFFF8
0FFFF8
07FFF0
ENDCHAR
STARTCHAR 00E9
ENCODING 233
SWIDTH 229 0
DWIDTH 22 0
BBX 21 83 0 1
BITMAP
0000E0
0001E0
0007E0
000FC0
001F80
003E00
00FC00
01F800
03E000
03C000
018000
000000
000000
000000
000000
000000
07FFF8
0FFFF8
0FFFF8
0FFFF0
0F0000
0F0000
0F0000
0F0000
0F0000
0F0000
0F0000
0F0000
0F0000
0F0000
0F0000
0F0000
0F0000
0F0000
0F0000
0F0000
0F0000
0F0000
0F0000
0F0000
0F0000
0F0000
0F0000
0F0000
0F0000
0F0000
0F0000
0F0000
0F0000
0F0000
0F0000
0F0000
0F0000
FFFFF0
FFFFF8
FFFFF8
FFFFF8
0F0000
0F0000
0F0000
0F0000
0F0000
0F0000
0F0000
0F0000
0F0000
0F0000
0F0000
0F0000
0F0000
0F0000
0F0000
0F0000
0F0000
0F0000
0F0000
0F0000
0F0000
0F0000
0FFFF8
0FFFF8
0FFFF8
07FFF0
ENDCHAR
STARTCHAR 00EA
ENCODING 234
SWIDTH 229 0
DWIDTH 22 0
BBX 21 79 0 1
BITMAP
007C00
01FF00
07FFC0
0FE7F0
0F81F0
0E0060
000000
000000
000000
000000
000000
000000
07FFF8
0FFFF8
0FFFF8
0FFFF0
0F0000
0F0000
0F0000
0F0000
0F0000
0F0000
0F0000
0F0000
0F0000
0F0000
0F0000
0F0000
0F0000
0F0000
0F0000
0F0000
0F0000
0F0000
0F0000
0F0000
0F0000
0F0000
0F0000
0F0000
0F0000
0F0000
0F0000
0F0000
0F0000
0F0000
0F0000
0F0000
0F0000
FFFFF0
FFFFF8
FFFFF8
FFFFF8
0F0000
0F0000
0F0000
0F0000
0F0000
0F0000
0F0000
0F0000
0F0000
0F0000
0F0000
0F0000
0F0000
0F0000
0F0000
0F0000
0F0000
0F0000
0F0000
0F0000
0F0000
0F0000
0FFFF8
0FFFF8
0FFFF8
07FFF0
ENDCHAR
STARTCHAR 00EB
ENCODING 235
SWIDTH 229 0
DWIDTH 22 0
BBX 21 80 0 1
BITMAP
03C1E0
07E3F0
07E3F0
07E3F0
07E3F0
07E1F0
01C0C0
000000
000000
000000
000000
000000
000000
07FFF8
0FFFF8
0FFFF8
0FFFF0
0F0000
0F0000
0F0000
0F0000
0F0000
0F0000
0F0000
0F0000
0F0000
0F0000
0F0000
0F0000
0F0000
0F0000
0F0000
0F0000
0F0000
0F0000
0F0000
0F0000
0F0000
0F0000
0F0000
0F0000
0F0000
0F0000
0F0000
0F0000
0F0000
0F0000
0F0000
0F0000
0F0000
FFFFF0
FFFFF8
FFFFF8
FFFFF8
0F0000
0F0000
0F0000
0F0000
0F0000
0F0000
0F0000
0F0000
0F0000
0F0000
0F0000
0F0000
0F0000
0F0000
0F0000
0F0000
0F0000
0F0000
0F0000
0F0000
0F0000
0F0000
0FFFF8
0FFFF8
0FFFF8
07FFF0
ENDCHAR
STARTCHAR 00EC
ENCODING 236
SWIDTH 93 0
DWIDTH 9 0
BBX 13 83 -6 0
BITMAP
6000
F000
FC00
7E00
3F00
0FC0
07E0
03F0
00F8
0078
0038
0000
0000
0000
0000
0000
0060
00F0
00F0
00F0
00F0
00F0
00F0
00F0
00F0
00F0
00F0
00F0
00F0
00F0
00F0
00F0
00F0
00F0
00F0
00F0
00F0
00F0
00F0
00F0
00F0
00F0
00F0
00F0
00F0
00F0
00F0
00F0
00F0
00F0
00F0
00F0
00F0
00F0
00F0
00F0
00F0
00F0
00F0
00F0
00F0
00F0
00F0
00F0
00F0
00F0
00F0
00F0
00F0
00F0
00F0
00F0
00F0
00F0
00F0
00F0
00F0
00F0
00F0
00F0
00F0
00F0
0060
ENDCHAR
STARTCHAR 00ED
ENCODING 237
SWIDTH 93 0
DWIDTH 9 0
BBX 13 83 0 1
BITMAP
0038
0078
00F8
03F0
07E0
0F80
3F00
7E00
F800
F000
6000
0000
0000
0000
0000
0000
1800
3C00
3C00
3C00
3C00
3C00
3C00
3C00
3C00
3C00
3C00
3C00
3C00
3C00
3C00
3C00
3C00
3C00
3C00
3C00
3C00
3C00
3C00
3C00
3C00
3C00
3C00
3C00
3C00
3C00
3C00
3C00
3C00
3C00
3C00
3C00
3C00
3C00
3C00
3C00
3C00
3C00
3C00
3C00
3C00
3C00
3C00
3C00
3C00
3C00
3C00
3C00
3C00
3C00
3C00
3C00
3C00
3C00
3C00
3C00
3C00
3C00
3C00
3C00
3C00
3C00
1800
ENDCHAR
STARTCHAR 00EE
ENCODING 238
SWIDTH 93 0
DWIDTH 9 0
BBX 16 79 -4 0
BITMAP
0380
0FE0
1FF8
7FFE
FC3F
F00F
4002
0000
0000
0000
0000
0000
0180
03C0
03C0
03C0
03C0
03C0
03C0
03C0
03C0
03C0
03C0
03C0
03C0
03C0
03C0
03C0
03C0
03C0
03C0
03C0
03C0
03C0
03C0
03C0
03C0
03C0
03C0
03C0
03C0
03C0
03C0
03C0
03C0
03C0
03C0
03C0
03C0
03C0
03C0
03C0
03C0
03C0
03C0
03C0
03C0
03C0
03C0
03C0
03C0
03C0
03C0
03C0
03C0
03C0
03C0
03C0
03C0
03C0
03C0
03C0
03C0
03C0
03C0
03C0
03C0
03C0
0180
ENDCHAR
STARTCHAR 00EF
ENCODING 239
SWIDTH 93 0
DWIDTH 9 0
BBX 15 81 -3 0
BITMAP
0018
F87C
FC7E
FC7E
FC7E
FC7E
783C
0000
0000
0000
0000
0000
0000
0000
0300
0780
0780
0780
0780
0780
0780
0780
0780
0780
0780
0780
0780
0780
0780
0780
0780
0780
0780
0780
0780
0780
0780
0780
0780
0780
0780
0780
0780
0780
0780
0780
0780
0780
0780
0780
0780
0780
0780
0780
0780
0780
0780
0780
0780
0780
0780
0780
0780
0780
0780
0780
0780
0780
0780
0780
0780
0780
0780
0780
0780
0780
0780
0780
0780
0780
0300
ENDCHAR
STARTCHAR 00F0
ENCODING 240
SWIDTH 239 0
DWIDTH 23 0
BBX 22 67 0 0
BITMAP
0FFF80
0FFFE0
0FFFF0
0FFFF8
0F00F8
0F0078
0F003C
0F003C
0F003C
0F003C
0F003C
0F003C
0F003C
0F003C
0F003C
0F003C
0F003C
0F003C
0F003C
0F003C
0F003C
0F003C
0F003C
0F003C
0F003C
0F003C
0F003C
0F003C
0F003C
0F003C
0F003C
0F003C
0F003C
0F003C
0F003C
0F003C
0F003C
FFFC3C
FFFE3C
FFFE3C
FFFC3C
0F003C
0F003C
0F003C
0F003C
0F003C
0F003C
0F003C
0F003C
0F003C
0F003C
0F003C
0F003C
0F003C
0F003C
0F003C
0F003C
0F003C
0F003C
0F003C
0F007C
0F0078
0F00F8
0FFFF8
0FFFF0
0FFFE0
0FFF80
ENDCHAR
STARTCHAR 00F1
ENCODING 241
SWIDTH 239 0
DWIDTH 23 0
BBX 19 79 2 0
BITMAP
078000
1FC380
1FF780
3FFF80
3C7F80
3C3F00
100C00
000000
000000
000000
000000
01F800
67FF00
FFFF80
FFFF80
FE07C0
FC03C0
F803E0
F001E0
F001E0
F001E0
F001E0
F001E0
F001E0
F001E0
F001E0
F001E0
F001E0
F001E0
F001E0
F001E0
F001E0
F001E0
F001E0
F001E0
F001E0
F001E0
F001E0
F001E0
F001E0
F001E0
F001E0
F001E0
F001E0
F001E0
F001E0
F001E0
F001E0
F001E0
F001E0
F001E0
F001E0
F001E0
F001E0
F001E0
F001E0
F001E0
F001E0
F001E0
F001E0
F001E0
F001E0
F001E0
F001E0
F001E0
F001E0
F001E0
F001E0
F001E0
F001E0
F001E0
F001E0
F001E0
F001E0
F001E0
F001E0
F001E0
F001E0
6000E0
ENDCHAR
STARTCHAR 00F2
ENCODING 242
SWIDTH 239 0
DWIDTH 23 0
BBX 19 84 2 -1
BITMAP
080000
1E0000
1F0000
1F8000
07E000
03F000
01F800
007E00
003F00
001F00
000700
000000
000000
000000
000000
03F800
1FFE00
3FFF00
7FFF80
7C07C0
7803C0
F003E0
F001E0
F001E0
F001E0
F001E0
F001E0
F001E0
F001E0
F001E0
F001E0
F001E0
F001E0
F001E0
F001E0
F001E0
F001E0
F001E0
F001E0
F001E0
F001E0
F001E0
F001E0
F001E0
F001E0
F001E0
F001E0
F001E0
F001E0
F001E0
F001E0
F001E0
F001E0
F001E0
F001E0
F001E0
F001E0
F001E0
F001E0
F001E0
F001E0
F001E0
F001E0
F001E0
F001E0
F001E0
F001E0
F001E0
F001E0
F001E0
F001E0
F001E0
F001E0
F001E0
F001E0
F001E0
F001E0
F803E0
7803C0
7E0FC0
3FFF80
3FFF80
1FFE00
03F800
ENDCHAR
STARTCHAR 00F3
ENCODING 243
SWIDTH 239 0
DWIDTH 23 0
BBX 19 84 2 -1
BITMAP
000600
001F00
003E00
007E00
00F800
03F000
07E000
0F8000
1F0000
1E0000
180000
000000
000000
000000
000000
03F800
1FFE00
3FFF00
7FFF80
7C07C0
7803C0
F003E0
F001E0
F001E0
F001E0
F001E0
F001E0
F001E0
F001E0
F001E0
F001E0
F001E0
F001E0
F001E0
F001E0
F001E0
F001E0
F001E0
F001E0
F001E0
F001E0
F001E0
F001E0
F001E0
F001E0
F001E0
F001E0
F001E0
F001E0
F001E0
F001E0
F001E0
F001E0
F001E0
F001E0
F001E0
F001E0
F001E0
F001E0
F001E0
F001E0
F001E0
F001E0
F001E0
F001E0
F001E0
F001E0
F001E0
F001E0
F001E0
F001E0
F001E0
F001E0
F001E0
F001E0
F001E0
F001E0
F803E0
7803C0
7E0FC0
3FFF80
3FFF80
1FFE00
03F800
ENDCHAR
STARTCHAR 00F4
ENCODING 244
SWIDTH 239 0
DWIDTH 23 0
BBX 19 81 2 0
BITMAP
01F000
07FC00
1FFF00
3FBF80
7E0F80
380380
000000
000000
000000
000000
000000
000000
03F800
1FFE00
3FFF00
7FFF80
7C07C0
7803C0
F003E0
F001E0
F001E0
F001E0
F001E0
F001E0
F001E0
F001E0
F001E0
F001E0
F001E0
F001E0
F001E0
F001E0
F001E0
F001E0
F001E0
F001E0
F001E0
F001E0
F001E0
F001E0
F001E0
F001E0
F001E0
F001E0
F001E0
F001E0
F001E0
F001E0
F001E0
F001E0
F001E0
F001E0
F001E0
F001E0
F001E0
F001E0
F001E0
F001E0
F001E0
F001E0
F001E0
F001E0
F001E0
F001E0
F001E0
F001E0
F001E0
F001E0
F001E0
F001E0
F001E0
F001E0
F001E0
F001E0
F803E0
7803C0
7E0FC0
3FFF80
3FFF80
1FFE00
03F800
ENDCHAR
STARTCHAR 00F5
ENCODING 245
SWIDTH 239 0
DWIDTH 23 0
BBX 19 81 2 -1
BITMAP
020000
1FC380
3FE780
3FFF80
3CFF00
387F00
303E00
000000
000000
000000
000000
000000
03F800
1FFE00
3FFF00
7FFF80
7C07C0
7803C0
F003E0
F001E0
F001E0
F001E0
F001E0
F001E0
F001E0
F001E0
F001E0
F001E0
F001E0
F001E0
F001E0
F001E0
F001E0
F001E0
F001E0
F001E0
F001E0
F001E0
F001E0
F001E0
F001E0
F001E0
F001E0
F001E0
F001E0
F001E0
F001E0
F001E0
F001E0
F001E0
F001E0
F001E0
F001E0
F001E0
F001E0
F001E0
F001E0
F001E0
F001E0
F001E0
F001E0
F001E0
F001E0
F001E0
F001E0
F001E0
F001E0
F001E0
F001E0
F001E0
F001E0
F001E0
F001E0
F001E0
F803E0
7803C0
7E0FC0
3FFF80
3FFF80
1FFE00
03F800
ENDCHAR
STARTCHAR 00F6
ENCODING 246
SWIDTH 239 0
DWIDTH 23 0
BBX 19 82 2 -1
BITMAP
040600
1F0F80
3F1F80
3F1F80
3F1F80
3F0F80
1F0F00
000000
000000
000000
000000
000000
000000
03F800
1FFE00
3FFF00
7FFF80
7C07C0
7803C0
F003E0
F001E0
F001E0
F001E0
F001E0
F001E0
F001E0
F001E0
F001E0
F001E0
F001E0
F001E0
F001E0
F001E0
F001E0
F001E0
F001E0
F001E0
F001E0
F001E0
F001E0
F001E0
F001E0
F001E0
F001E0
F001E0
F001E0
F001E0
F001E0
F001E0
F001E0
F001E0
F001E0
F001E0
F001E0
F001E0
F001E0
F001E0
F001E0
F001E0
F001E0
F001E0
F001E0
F001E0
F001E0
F001E0
F001E0
F001E0
F001E0
F001E0
F001E0
F001E0
F001E0
F001E0
F001E0
F001E0
F803E0
7803C0
7E0FC0
3FFF80
3FFF80
1FFE00
03F800
ENDCHAR
STARTCHAR 00F7
ENCODING 247
SWIDTH 510 0
DWIDTH 49 0
BBX 44 32 2 6
BITMAP
000007000000
00001F800000
00001F800000
00001F800000
00001F800000
00000F000000
000000000000
000000000000
000000000000
000000000000
000000000000
000000000000
000000000000
000000000000
7FFFFFFFFFF0
FFFFFFFFFFF0
FFFFFFFFFFF0
7FFFFFFFFFE0
000000000000
000000000000
000000000000
000000000000
000000000000
000000000000
000000000000
000000000000
00000F000000
00001F800000
00001F800000
00001F800000
00001F800000
00000E000000
ENDCHAR
STARTCHAR 00F8
ENCODING 248
SWIDTH 239 0
DWIDTH 23 0
BBX 19 69 2 -1
BITMAP
03FDC0
1FFFC0
3FFFC0
7FFFC0
7C07C0
7803C0
F007E0
F007E0
F007E0
F007E0
F00FE0
F00FE0
F00FE0
F00FE0
F00FE0
F01FE0
F01FE0
F01FE0
F01FE0
F01FE0
F03FE0
F03DE0
F03DE0
F03DE0
F03DE0
F07DE0
F079E0
F079E0
F079E0
F079E0
F0F1E0
F0F1E0
F0F1E0
F0F1E0
F0F1E0
F1E1E0
F1E1E0
F1E1E0
F1E1E0
F1E1E0
F3C1E0
F3C1E0
F3C1E0
F3C1E0
F781E0
F781E0
F781E0
F781E0
F781E0
FF01E0
FF01E0
FF01E0
FF01E0
FF01E0
FE01E0
FE01E0
FE01E0
FE01E0
FC01E0
FC01E0
FC01E0
FC01E0
FC01E0
7803C0
7807C0
7F1F80
7FFF80
7FFE00
77F800
ENDCHAR
STARTCHAR 00F9
ENCODING 249
SWIDTH 229 0
DWIDTH 22 0
BBX 18 83 2 0
BITMAP
3C0000
3E0000
1F0000
0FC000
07E000
03F000
00FC00
007E00
003E00
000E00
000000
000000
000000
000000
000000
600180
F003C0
F003C0
F003C0
F003C0
F003C0
F003C0
F003C0
F003C0
F003C0
F003C0
F003C0
F003C0
F003C0
F003C0
F003C0
F003C0
F003C0
F003C0
F003C0
F003C0
F003C0
F003C0
F003C0
F003C0
F003C0
F003C0
F003C0
F003C0
F003C0
F003C0
F003C0
F003C0
F003C0
F003C0
F003C0
F003C0
F003C0
F003C0
F003C0
F003C0
F003C0
F003C0
F003C0
F003C0
F003C0
F003C0
F003C0
F003C0
F003C0
F003C0
F003C0
F003C0
F003C0
F003C0
F003C0
F003C0
F003C0
F003C0
F003C0
F003C0
F007C0
780780
7C0F80
7FFF80
3FFF00
1FFE00
03F800
ENDCHAR
STARTCHAR 00FA
ENCODING 250
SWIDTH 229 0
DWIDTH 22 0
BBX 18 84 2 -1
BITMAP
000400
001E00
003E00
007C00
01F800
03F000
07E000
0F8000
1F0000
3C0000
180000
000000
000000
000000
000000
000000
600180
F003C0
F003C0
F003C0
F003C0
F003C0
F003C0
F003C0
F003C0
F003C0
F003C0
F003C0
F003C0
F003C0
F003C0
F003C0
F003C0
F003C0
F003C0
F003C0
F003C0
F003C0
F003C0
F003C0
F003C0
F003C0
F003C0
F003C0
F003C0
F003C0
F003C0
F003C0
F003C0
F003C0
F003C0
F003C0
F003C0
F003C0
F003C0
F003C0
F003C0
F003C0
F003C0
F003C0
F003C0
F003C0
F003C0
F003C0
F003C0
F003C0
F003C0
F003C0
F003C0
F003C0
F003C0
F003C0
F003C0
F003C0
F003C0
F003C0
F003C0
F007C0
780780
7C0F80
7FFF80
3FFF00
1FFE00
03F800
ENDCHAR
STARTCHAR 00FB
ENCODING 251
SWIDTH 229 0
DWIDTH 22 0
BBX 18 81 2 0
BITMAP
03E000
0FF800
1FFE00
7F7F00
7C1F80
700700
000000
000000
000000
000000
000000
000000
000000
600180
F003C0
F003C0
F003C0
F003C0
F003C0
F003C0
F003C0
F003C0
F003C0
F003C0
F003C0
F003C0
F003C0
F003C0
F003C0
F003C0
F003C0
F003C0
F003C0
F003C0
F003C0
F003C0
F003C0
F003C0
F003C0
F003C0
F003C0
F003C0
F003C0
F003C0
F003C0
F003C0
F003C0
F003C0
F003C0
F003C0
F003C0
F003C0
F003C0
F003C0
F003C0
F003C0
F003C0
F003C0
F003C0
F003C0
F003C0
F003C0
F003C0
F003C0
F003C0
F003C0
F003C0
F003C0
F003C0
F003C0
F003C0
F003C0
F003C0
F003C0
F007C0
780780
7C0F80
7FFF80
3FFF00
1FFE00
03F800
ENDCHAR
STARTCHAR 00FC
ENCODING 252
SWIDTH 229 0
DWIDTH 22 0
BBX 18 82 2 -1
BITMAP
000600
1E0F00
3F1F80
3F1F80
3F1F80
3F1F80
1E0F00
000000
000000
000000
000000
000000
000000
000000
600180
F003C0
F003C0
F003C0
F003C0
F003C0
F003C0
F003C0
F003C0
F003C0
F003C0
F003C0
F003C0
F003C0
F003C0
F003C0
F003C0
F003C0
F003C0
F003C0
F003C0
F003C0
F003C0
F003C0
F003C0
F003C0
F003C0
F003C0
F003C0
F003C0
F003C0
F003C0
F003C0
F003C0
F003C0
F003C0
F003C0
F003C0
F003C0
F003C0
F003C0
F003C0
F003C0
F003C0
F003C0
F003C0
F003C0
F003C0
F003C0
F003C0
F003C0
F003C0
F003C0
F003C0
F003C0
F003C0
F003C0
F003C0
F003C0
F003C0
F003C0
F007C0
780780
7C0F80
7FFF80
3FFF00
1FFE00
03F800
ENDCHAR
STARTCHAR 00FD
ENCODING 253
SWIDTH 229 0
DWIDTH 22 0
BBX 18 83 2 0
BITMAP
000E00
001E00
007E00
00FC00
01F800
03E000
0FC000
1F8000
3E0000
1C0000
080000
000000
000000
000000
000000
600180
F003C0
F003C0
F003C0
F003C0
F003C0
F003C0
F003C0
F003C0
F003C0
F003C0
F003C0
F003C0
F003C0
F003C0
F003C0
F003C0
F003C0
F003C0
F003C0
F003C0
F003C0
F003C0
F003C0
F003C0
F003C0
F003C0
F003C0
F003C0
F003C0
F003C0
F003C0
F003C0
F003C0
F003C0
7807C0
7807C0
7FFFC0
3FFFC0
1FFFC0
07F3C0
0003C0
0003C0
0003C0
0003C0
0003C0
0003C0
0003C0
0003C0
0003C0
0003C0
F003C0
F003C0
F003C0
F003C0
F003C0
F003C0
F003C0
F003C0
F003C0
F003C0
F003C0
780780
7C0F80
7FFF00
3FFF00
1FFE00
07F000
ENDCHAR
STARTCHAR 00FE
ENCODING 254
SWIDTH 239 0
DWIDTH 23 0
BBX 22 67 0 0
BITMAP
060000
0F0000
0F0000
0F0000
0F0000
0F0000
0F0000
0F0000
0F0000
0F0000
0F0000
0F0000
0F0000
0F0000
0FFF00
0FFFE0
0FFFF0
0FFFF0
0F00F8
0F0078
0F007C
0F003C
0F003C
0F003C
0F003C
0F003C
0F003C
0F003C
0F003C
0F003C
0F003C
0F003C
0F003C
0F003C
0F003C
0F003C
0F003C
0F003C
0F003C
0F003C
0F003C
0F003C
0F003C
0F003C
0F003C
0F003C
0F003C
0F003C
0F003C
0F0078
0F00F8
FFFFF0
FFFFF0
FFFFC0
FFFF00
0F0000
0F0000
0F0000
0F0000
0F0000
0F0000
0F0000
0F0000
0F0000
0F0000
0F0000
060000
ENDCHAR
STARTCHAR 00FF
ENCODING 255
SWIDTH 229 0
DWIDTH 22 0
BBX 18 81 2 0
BITMAP
1C0F00
3E1F00
3F1F80
3F1F80
3F1F80
3E1F00
1C0E00
000000
000000
000000
000000
000000
000000
600180
F003C0
F003C0
F003C0
F003C0
F003C0
F003C0
F003C0
F003C0
F003C0
F003C0
F003C0
F003C0
F003C0
F003C0
F003C0
F003C0
F003C0
F003C0
F003C0
F003C0
F003C0
F003C0
F003C0
F003C0
F003C0
F003C0
F003C0
F003C0
F003C0
F003C0
F003C0
F003C0
F003C0
F003C0
7807C0
7807C0
7FFFC0
3FFFC0
1FFFC0
07F3C0
0003C0
0003C0
0003C0
0003C0
0003C0
0003C0
0003C0
0003C0
0003C0
0003C0
F003C0
F003C0
F003C0
F003C0
F003C0
F003C0
F003C0
F003C0
F003C0
F003C0
F003C0
780780
7C0F80
7FFF00
3FFF00
1FFE00
07F000
ENDCHAR
STARTCHAR 0131
ENCODING 305
SWIDTH 93 0
DWIDTH 9 0
BBX 4 67 2 0
BITMAP
60
F0
F0
F0
F0
F0
F0
F0
F0
F0
F0
F0
F0
F0
F0
F0
F0
F0
F0
F0
F0
F0
F0
F0
F0
F0
F0
F0
F0
F0
F0
F0
F0
F0
F0
F0
F0
F0
F0
F0
F0
F0
F0
F0
F0
F0
F0
F0
F0
F0
F0
F0
F0
F0
F0
F0
F0
F0
F0
F0
F0
F0
F0
F0
F0
F0
60
ENDCHAR
STARTCHAR 0141
ENCODING 321
SWIDTH 208 0
DWIDTH 20 0
BBX 21 67 -1 0
BITMAP
060000
0F0000
0F0000
0F0000
0F0000
0F0000
0F0000
0F0000
0F0000
0F0000
0F0000
0F0000
0F0000
0F0000
0F0000
0F0000
0F0000
0F0000
0F0000
0F0000
0F0000
0F0000
0F0000
0F0000
0F0000
0F0000
0F0000
0F0000
0F0000
0F0000
0F1E00
0F3E00
0F7C00
0FFC00
0FF800
0FF000
0FC000
0F8000
1F0000
3F0000
7F0000
FF0000
FF0000
EF0000
0F0000
0F0000
0F0000
0F0000
0F0000
0F0000
0F0000
0F0000
0F0000
0F0000
0F0000
0F0000
0F0000
0F0000
0F0000
0F0000
0F0000
0F0000
0F0000
0FFFF0
0FFFF8
0FFFF8
0FFFF0
ENDCHAR
STARTCHAR 0142
ENCODING 322
SWIDTH 208 0
DWIDTH 20 0
BBX 21 67 -1 0
BITMAP
060000
0F0000
0F0000
0F0000
0F0000
0F0000
0F0000
0F0000
0F0000
0F0000
0F0000
0F0000
0F0000
0F0000
0F0000
0F0000
0F0000
0F0000
0F0000
0F0000
0F0000
0F0000
0F0000
0F0000
0F0000
0F0000
0F0000
0F0000
0F0000
0F0000
0F1E00
0F3E00
0F7C00
0FFC00
0FF800
0FF000
0FC000
0F8000
1F0000
3F0000
7F0000
FF0000
FF0000
EF0000
0F0000
0F0000
0F0000
0F0000
0F0000
0F0000
0F0000
0F0000
0F0000
0F0000
0F0000
0F0000
0F0000
0F0000
0F0000
0F0000
0F0000
0F0000
0F0000
0FFFF0
0FFFF8
0FFFF8
0FFFF0
ENDCHAR
STARTCHAR 0152
ENCODING 338
SWIDTH 343 0
DWIDTH 33 0
BBX 31 69 1 -1
BITMAP
07FC0000
1FFFFFFE
3FFFFFFE
7FFFFFFE
7C0FFFFE
7807C000
F003C000
F003C000
F003C000
F003C000
F003C000
F003C000
F003C000
F003C000
F003C000
F003C000
F003C000
F003C000
F003C000
F003C000
F003C000
F003C000
F003C000
F003C000
F003C000
F003C000
F003C000
F003C000
F003C000
F003C000
F003C000
F003C000
F003C000
F003C000
F003C000
F003C000
F003C000
F003C000
F03FFFFE
F03FFFFE
F03FFFFE
F03FFFFE
F003C000
F003C000
F003C000
F003C000
F003C000
F003C000
F003C000
F003C000
F003C000
F003C000
F003C000
F003C000
F003C000
F003C000
F003C000
F003C000
F003C000
F003C000
F003C000
F003C000
F007C000
7807C000
7C0FFFFE
7FFFFFFE
3FFFFFFE
1FFFFFFE
07E00000
ENDCHAR
STARTCHAR 0153
ENCODING 339
SWIDTH 354 0
DWIDTH 34 0
BBX 32 69 1 -1
BITMAP
07FC0000
1FFFFFFE
3FFFFFFF
7FFFFFFE
7C0FFFFE
7807C000
F003C000
F003C000
F003C000
F003C000
F003C000
F003C000
F003C000
F003C000
F003C000
F003C000
F003C000
F003C000
F003C000
F003C000
F003C000
F003C000
F003C000
F003C000
F003C000
F003C000
F003C000
F003C000
F003C000
F003C000
F003C000
F003C000
F003C000
F003C000
F003C000
F003C000
F003C000
F003C000
F03FFFFE
F03FFFFF
F03FFFFF
F03FFFFE
F003C000
F003C000
F003C000
F003C000
F003C000
F003C000
F003C000
F003C000
F003C000
F003C000
F003C000
F003C000
F003C000
F003C000
F003C000
F003C000
F003C000
F003C000
F003C000
F003C000
F007C000
7807C000
7C0FFFFE
7FFFFFFF
3FFFFFFE
1FFFFFFE
07E00000
ENDCHAR
STARTCHAR 0160
ENCODING 352
SWIDTH 229 0
DWIDTH 22 0
BBX 19 80 2 0
BITMAP
780F80
7E3F00
3FFF00
1FFC00
07F000
01C000
000000
000000
000000
000000
000000
03F800
1FFE00
3FFF00
7FFF80
7C0FC0
7803C0
F803E0
F001E0
F001E0
F001E0
F001E0
F001E0
F001E0
F001E0
F001E0
F001E0
F00000
F00000
F00000
F00000
F00000
F00000
F00000
F00000
F00000
F00000
F00000
F00000
F00000
F00000
F00000
F00000
F00000
F00000
F00000
F80000
7C0000
7F0000
3FF000
1FFE00
07FF00
007F80
000FC0
0003C0
0003E0
0001E0
0001E0
0001E0
0001E0
0001E0
0001E0
2001E0
F001E0
F001E0
F001E0
F001E0
F001E0
F001E0
F001E0
F001E0
F001E0
F001E0
F003E0
7803C0
7C0FC0
3FFF80
3FFF80
0FFF00
03F800
ENDCHAR
STARTCHAR 0161
ENCODING 353
SWIDTH 229 0
DWIDTH 22 0
BBX 19 80 2 0
BITMAP
700700
7C1F00
7F7F00
1FFC00
07F800
01E000
000000
000000
000000
000000
000000
03F800
1FFE00
3FFF00
7FFF80
7C0FC0
7803C0
F803E0
F001E0
F001E0
F001E0
F001E0
F001E0
F001E0
F001E0
F001E0
F001E0
F00000
F00000
F00000
F00000
F00000
F00000
F00000
F00000
F00000
F00000
F00000
F00000
F00000
F00000
F00000
F00000
F00000
F00000
F00000
F80000
7C0000
7F0000
3FF000
1FFE00
07FF00
007F80
000FC0
0003C0
0003E0
0001E0
0001E0
0001E0
0001E0
0001E0
0001E0
2001E0
F001E0
F001E0
F001E0
F001E0
F001E0
F001E0
F001E0
F001E0
F001E0
F001E0
F003E0
7803C0
7C0FC0
3FFF80
3FFF80
0FFF00
03F800
ENDCHAR
STARTCHAR 0178
ENCODING 376
SWIDTH 229 0
DWIDTH 22 0
BBX 18 81 2 -1
BITMAP
380E00
7E1F00
7E3F00
7E3F80
7E3F00
7C1F00
100000
000000
000000
000000
000000
000000
000000
600180
F003C0
F003C0
F003C0
F003C0
F003C0
F003C0
F003C0
F003C0
F003C0
F003C0
F003C0
F003C0
F003C0
F003C0
F003C0
F003C0
F003C0
F003C0
F003C0
F003C0
F003C0
F003C0
F003C0
F003C0
F003C0
F003C0
F003C0
F003C0
F003C0
F003C0
F003C0
F003C0
F003C0
F003C0
7807C0
7807C0
7FFFC0
3FFFC0
1FFFC0
07F3C0
0003C0
0003C0
0003C0
0003C0
0003C0
0003C0
0003C0
0003C0
0003C0
0003C0
F003C0
F003C0
F003C0
F003C0
F003C0
F003C0
F003C0
F003C0
F003C0
F003C0
F003C0
780780
7C0F80
7FFF00
3FFF00
1FFE00
07F000
ENDCHAR
STARTCHAR 017D
ENCODING 381
SWIDTH 197 0
DWIDTH 19 0
BBX 18 80 0 0
BITMAP
380180
3E07C0
3F9F80
1FFF00
07FE00
01F800
006000
000000
000000
000000
000000
000000
000000
7FFF00
FFFF80
FFFF80
7FFF80
000780
000780
000780
000780
000F00
000F00
000F00
000F00
001F00
001E00
001E00
001E00
001E00
003C00
003C00
003C00
003C00
003C00
007800
007800
007800
007800
00F800
00F000
00F000
00F000
00F000
01E000
01E000
01E000
01E000
01E000
03C000
03C000
03C000
03C000
07C000
078000
078000
078000
078000
0F0000
0F0000
0F0000
0F0000
0F0000
1E0000
1E0000
1E0000
1E0000
3C0000
3C0000
3C0000
3C0000
3C0000
780000
780000
780000
780000
7FFF80
7FFFC0
7FFFC0
7FFF80
ENDCHAR
STARTCHAR 017E
ENCODING 382
SWIDTH 197 0
DWIDTH 19 0
BBX 18 80 0 0
BITMAP
300180
7C0780
3F1F80
1FFF00
07FC00
01F000
004000
000000
000000
000000
000000
000000
000000
7FFF00
FFFF80
FFFF80
7FFF80
000780
000780
000780
000780
000F00
000F00
000F00
000F00
001F00
001E00
001E00
001E00
001E00
003C00
003C00
003C00
003C00
003C00
007800
007800
007800
007800
00F800
00F000
00F000
00F000
00F000
01E000
01E000
01E000
01E000
01E000
03C000
03C000
03C000
03C000
07C000
078000
078000
078000
078000
0F0000
0F0000
0F0000
0F0000
0F0000
1E0000
1E0000
1E0000
1E0000
3C0000
3C0000
3C0000
3C0000
3C0000
780000
780000
780000
780000
7FFF80
7FFFC0
7FFFC0
7FFF80
ENDCHAR
STARTCHAR 0192
ENCODING 402
SWIDTH 239 0
DWIDTH 23 0
BBX 23 68 0 0
BITMAP
0007E0
001FF0
003FF8
003FFC
007C3C
00781E
00701E
00F01E
00F01E
00E01E
00E01E
01E01E
01E01E
01E01C
01E01C
01E000
01C000
01C000
03C000
03C000
03C000
03C000
03C000
03C000
03C000
038000
078000
078000
078000
078000
078000
078000
078000
0F8000
0F0000
0F0000
0F0000
0F0000
7FFF80
FFFF80
FFFF80
7FFF80
1E0000
1E0000
1E0000
1E0000
1E0000
1E0000
1E0000
1E0000
1E0000
3C0000
3C0000
3C0000
3C0000
3C0000
3C0000
3C0000
3C0000
3C0000
380000
780000
780000
780000
780000
780000
780000
300000
ENDCHAR
STARTCHAR 02BA
ENCODING 698
SWIDTH 229 0
DWIDTH 22 0
BBX 21 11 6 69
BITMAP
001010
007878
00F8F8
01FBF0
03E7E0
0FCFC0
1FBF00
3E7E00
FCFC00
F8F000
E0E000
ENDCHAR
STARTCHAR 02C6
ENCODING 710
SWIDTH 229 0
DWIDTH 22 0
BBX 16 6 3 70
BITMAP
07C0
0FF0
3FFC
FE7F
F81F
E007
ENDCHAR
STARTCHAR 02C7
ENCODING 711
SWIDTH 229 0
DWIDTH 22 0
BBX 16 6 3 70
BITMAP
F00F
FC3F
7FFE
1FFC
07F0
03C0
ENDCHAR
STARTCHAR 02D8
ENCODING 728
SWIDTH 229 0
DWIDTH 22 0
BBX 11 6 8 70
BITMAP
C060
E0E0
F1E0
FFC0
7FC0
1F00
ENDCHAR
STARTCHAR 02DA
ENCODING 730
SWIDTH 229 0
DWIDTH 22 0
BBX 13 13 5 69
BITMAP
0200
1FC0
7FE0
7FF0
F078
F078
E038
E038
F078
78F0
7FF0
3FE0
0F80
ENDCHAR
STARTCHAR 02DC
ENCODING 732
SWIDTH 229 0
DWIDTH 22 0
BBX 15 7 4 69
BITMAP
0800
7F0E
FF9E
FFFE
F3FC
E1FC
C078
ENDCHAR
STARTCHAR 2013
ENCODING 8211
SWIDTH 239 0
DWIDTH 23 0
BBX 18 4 2 26
BITMAP
7FFFC0
FFFFC0
FFFFC0
7FFF80
ENDCHAR
STARTCHAR 2014
ENCODING 8212
SWIDTH 510 0
DWIDTH 49 0
BBX 44 4 2 26
BITMAP
7FFFFFFFFFF0
FFFFFFFFFFF0
FFFFFFFFFFF0
7FFFFFFFFFE0
ENDCHAR
STARTCHAR 2018
ENCODING 8216
SWIDTH 135 0
DWIDTH 13 0
BBX 9 16 2 50
BITMAP
6000
F000
F000
F800
7800
7C00
3C00
3C00
3E00
1E00
1F00
0F00
0F80
0780
0780
0780
ENDCHAR
STARTCHAR 2019
ENCODING 8217
SWIDTH 135 0
DWIDTH 13 0
BBX 9 16 2 50
BITMAP
0300
0780
0780
0F80
0F00
1F00
1E00
3E00
3E00
3C00
7C00
7800
F800
F000
F000
F000
ENDCHAR
STARTCHAR 201A
ENCODING 8218
SWIDTH 135 0
DWIDTH 13 0
BBX 9 16 3 -3
BITMAP
0300
0780
0F80
0F80
0F00
1F00
1E00
3E00
3E00
3C00
7C00
7800
F800
F000
F000
E000
ENDCHAR
STARTCHAR 201C
ENCODING 8220
SWIDTH 208 0
DWIDTH 20 0
BBX 16 16 2 50
BITMAP
60C0
F1E0
F1E0
F9F0
78F0
7CF8
3CF8
3E78
3E7C
1E3C
1F3E
0F1E
0F9F
079F
078F
038F
ENDCHAR
STARTCHAR 201D
ENCODING 8221
SWIDTH 208 0
DWIDTH 20 0
BBX 16 16 2 50
BITMAP
0306
078F
078F
0F9F
0F1E
1F3E
1F3C
1E7C
3E7C
3C78
7CF8
78F0
F9F0
F9E0
F1E0
F1C0
ENDCHAR
STARTCHAR 201E
ENCODING 8222
SWIDTH 239 0
DWIDTH 23 0
BBX 16 16 2 -3
BITMAP
0306
078F
079F
0F9F
0F9E
0F3E
1F3C
1E7C
3E7C
3CF8
7CF8
7CF0
F9F0
F9E0
F1E0
F1E0
ENDCHAR
STARTCHAR 2020
ENCODING 8224
SWIDTH 239 0
DWIDTH 23 0
BBX 20 68 2 -1
BITMAP
006000
00F000
00F000
00F000
00F000
00F000
00F000
00F000
00F000
00F000
00F000
00F000
00F000
00F000
7FFFE0
FFFFF0
FFFFF0
7FFFE0
00F000
00F000
00F000
00F000
00F000
00F000
00F000
00F000
00F000
00F000
00F000
00F000
00F000
00F000
00F000
00F000
00F000
00F000
00F000
00F000
00F000
00F000
00F000
00F000
00F000
00F000
00F000
00F000
00F000
00F000
00F000
00F000
00F000
00F000
00F000
00F000
00F000
00F000
00F000
00F000
00F000
00F000
00F000
00F000
00F000
00F000
00F000
00F000
00F000
006000
ENDCHAR
STARTCHAR 2021
ENCODING 8225
SWIDTH 239 0
DWIDTH 23 0
BBX 20 68 2 -1
BITMAP
006000
00F000
00F000
00F000
00F000
00F000
00F000
00F000
00F000
00F000
00F000
00F000
00F000
00F000
7FFFE0
FFFFF0
FFFFF0
7FFFE0
00F000
00F000
00F000
00F000
00F000
00F000
00F000
00F000
00F000
00F000
00F000
00F000
00F000
00F000
00F000
00F000
00F000
00F000
00F000
00F000
00F000
00F000
00F000
00F000
00F000
00F000
00F000
00F000
00F000
00F000
00F000
00F000
00F000
7FFFE0
FFFFF0
FFFFF0
7FFFE0
00F000
00F000
00F000
00F000
00F000
00F000
00F000
00F000
00F000
00F000
00F000
00F000
006000
ENDCHAR
STARTCHAR 2022
ENCODING 8226
SWIDTH 385 0
DWIDTH 37 0
BBX 23 23 7 23
BITMAP
00FE00
03FF80
0FFFE0
1FFFF0
3FFFF8
3FFFF8
7FFFFC
7FFFFC
FFFFFE
FFFFFE
FFFFFE
FFFFFE
FFFFFE
FFFFFE
FFFFFE
7FFFFC
7FFFFC
3FFFF8
3FFFF8
1FFFF0
0FFFE0
03FF80
00FE00
ENDCHAR
STARTCHAR 2026
ENCODING 8230
SWIDTH 322 0
DWIDTH 31 0
BBX 27 6 2 0
BITMAP
380E0180
7C1F07C0
FC3F87E0
FC3F87E0
FC1F07E0
780E03C0
ENDCHAR
STARTCHAR 2030
ENCODING 8240
SWIDTH 677 0
DWIDTH 65 0
BBX 53 69 6 -1
BITMAP
1F8000E0000000
3FC000E0000000
7FE001E0000000
79E001E0000000
F0F001E0000000
F0F001C0000000
F0F001C0000000
F0F003C0000000
F0F003C0000000
F0F003C0000000
F0F00380000000
F0F00780000000
F0F00780000000
F0F00780000000
F0F00780000000
F0F00700000000
F0F00F00000000
F0F00F00000000
F0F00F00000000
F0F00F00000000
F0F00E00000000
F0F01E00000000
F0F01E00000000
F0F01E00000000
F0F01E00000000
F0F01C00000000
F0F03C00000000
F0F03C00000000
F0F03C0FC00FC0
F0F03C1FE01FE0
F0F0383FF03FF0
F0F0783CF03CF0
F0F07878787878
F0F07878787878
F0F07878787878
F0F07078787878
F0F0F078787878
F1F0F078787878
7FE0F078787878
7FE0E078787878
3FC0E078787878
0001E078787878
0001E078787878
0001E078787878
0001C078787878
0001C078787878
0003C078787878
0003C078787878
0003C078787878
00038078787878
00038078787878
00078078787878
00078078787878
00078078787878
00070078787878
00070078787878
000F0078787878
000F0078787878
000F0078787878
000E0078787878
001E0078787878
001E0078787878
001E0078787878
001E0078787878
001C0078787878
003C0038F038F0
003C003FF03FF0
003C001FE01FE0
0018000FC00FC0
ENDCHAR
STARTCHAR 2039
ENCODING 8249
SWIDTH 187 0
DWIDTH 18 0
BBX 9 34 4 3
BITMAP
0380
0780
0780
0780
0F00
0F00
0F00
1E00
1E00
3C00
3C00
3C00
7800
7800
7800
F000
F000
F000
F000
7800
7800
7800
3C00
3C00
3C00
1E00
1E00
0F00
0F00
0F00
0780
0780
0780
0380
ENDCHAR
STARTCHAR 203A
ENCODING 8250
SWIDTH 187 0
DWIDTH 18 0
BBX 9 34 4 3
BITMAP
E000
F000
F000
F000
7800
7800
7800
3C00
3C00
1E00
1E00
1E00
0F00
0F00
0F00
0780
0780
0780
0780
0F00
0F00
0F00
1E00
1E00
1E00
3C00
3C00
7C00
7800
7800
F000
F000
F000
E000
ENDCHAR
STARTCHAR 2122
ENCODING 8482
SWIDTH 270 0
DWIDTH 26 0
BBX 23 28 1 39
BITMAP
FF3CF8
FF7FFC
1CE38E
1CE38E
1CE38E
1CE38E
1CE38E
1CE38E
1CE38E
1CE38E
1CE38E
1CE38E
1CE38E
1CE38E
1CE38E
1CE38E
1CE38E
1CE38E
1CE38E
1CE38E
1CE38E
1CE38E
1CE38E
1CE38E
1CE38E
1CE38E
1CE38E
080004
ENDCHAR
STARTCHAR 2215
ENCODING 8725
SWIDTH 208 0
DWIDTH 20 0
BBX 16 69 2 -1
BITMAP
0007
0007
0007
000F
000F
000F
000E
000E
001E
001E
001E
001C
001C
003C
003C
003C
0038
0038
0078
0078
0078
0070
0070
00F0
00F0
00F0
00E0
00E0
00E0
01E0
01E0
01C0
01C0
01C0
03C0
03C0
0380
0380
0380
0780
0780
0700
0700
0700
0F00
0F00
0E00
0E00
0E00
1E00
1E00
1C00
1C00
1C00
3C00
3C00
3800
3800
3800
7800
7800
7000
7000
7000
F000
F000
E000
E000
C000
ENDCHAR
STARTCHAR 2219
ENCODING 8729
SWIDTH 239 0
DWIDTH 23 0
BBX 7 8 8 26
BITMAP
38
7C
FE
FE
FE
FE
7C
10
ENDCHAR
ENDFONT
